<?xml version="1.0" encoding="utf-8" standalone="no"?>
<!DOCTYPE svg PUBLIC "-//W3C//DTD SVG 1.1//EN"
  "http://www.w3.org/Graphics/SVG/1.1/DTD/svg11.dtd">
<svg xmlns:xlink="http://www.w3.org/1999/xlink" width="567.998767pt" height="352.314375pt" viewBox="0 0 567.998767 352.314375" xmlns="http://www.w3.org/2000/svg" version="1.1">
 <metadata>
  <rdf:RDF xmlns:dc="http://purl.org/dc/elements/1.1/" xmlns:cc="http://creativecommons.org/ns#" xmlns:rdf="http://www.w3.org/1999/02/22-rdf-syntax-ns#">
   <cc:Work>
    <dc:type rdf:resource="http://purl.org/dc/dcmitype/StillImage"/>
    <dc:date>2026-04-30T13:19:22.838560</dc:date>
    <dc:format>image/svg+xml</dc:format>
    <dc:creator>
     <cc:Agent>
      <dc:title>Matplotlib v3.10.8, https://matplotlib.org/</dc:title>
     </cc:Agent>
    </dc:creator>
   </cc:Work>
  </rdf:RDF>
 </metadata>
 <defs>
  <style type="text/css">*{stroke-linejoin: round; stroke-linecap: butt}</style>
 </defs>
 <g id="figure_1">
  <g id="patch_1">
   <path d="M 0 352.314375 
L 567.998767 352.314375 
L 567.998767 0 
L 0 0 
z
" style="fill: #0d1117"/>
  </g>
  <g id="axes_1">
   <g id="patch_2">
    <path d="M 13.186952 305.08 
L 560.798767 305.08 
L 560.798767 7.2 
L 13.186952 7.2 
z
" style="fill: #0d1117"/>
   </g>
   <g id="FillBetweenPolyCollection_1">
    <defs>
     <path id="m981d70c19d" d="M 268.230463 -47.234375 
L 268.230463 -304.411511 
L 270.732116 -298.649912 
L 273.233768 -292.374241 
L 275.735421 -285.620054 
L 278.237074 -278.429478 
L 280.738727 -270.850497 
L 283.24038 -262.936004 
L 285.742033 -254.742656 
L 288.243686 -246.329593 
L 290.745339 -237.757118 
L 293.246991 -229.085404 
L 295.748644 -220.373329 
L 298.250297 -211.677503 
L 300.75195 -203.051523 
L 303.253603 -194.545482 
L 305.755256 -186.205714 
L 308.256909 -178.07474 
L 310.758562 -170.191352 
L 313.260214 -162.590768 
L 315.761867 -155.304788 
L 318.26352 -148.361882 
L 320.765173 -141.787158 
L 323.266826 -135.602194 
L 325.768479 -129.8247 
L 328.270132 -124.468048 
L 330.771785 -119.5407 
L 333.273438 -115.045586 
L 335.77509 -110.979499 
L 338.276743 -107.33259 
L 340.778396 -104.08803 
L 343.280049 -101.221908 
L 345.781702 -98.703434 
L 348.283355 -96.495464 
L 350.785008 -94.555385 
L 353.286661 -92.836334 
L 355.788313 -91.288718 
L 358.289966 -89.861977 
L 360.791619 -88.50648 
L 363.293272 -87.175476 
L 365.794925 -85.826952 
L 368.296578 -84.425301 
L 370.798231 -82.942679 
L 373.299884 -81.359954 
L 375.801536 -79.667195 
L 378.303189 -77.863658 
L 380.804842 -75.957279 
L 383.306495 -73.963708 
L 385.808148 -71.904979 
L 388.309801 -69.80789 
L 390.811454 -67.702233 
L 393.313107 -65.618988 
L 395.814759 -63.588607 
L 398.316412 -61.639492 
L 400.818065 -59.796751 
L 403.319718 -58.081288 
L 405.821371 -56.509244 
L 408.323024 -55.091804 
L 410.824677 -53.835305 
L 413.32633 -52.741624 
L 415.827982 -51.808744 
L 418.329635 -51.031455 
L 420.831288 -50.402083 
L 423.332941 -49.911205 
L 425.834594 -49.548275 
L 428.336247 -49.302137 
L 430.8379 -49.16139 
L 433.339553 -49.114613 
L 435.841205 -49.150459 
L 438.342858 -49.257644 
L 440.844511 -49.424865 
L 443.346164 -49.640698 
L 445.847817 -49.893508 
L 448.34947 -50.171405 
L 450.851123 -50.462289 
L 453.352776 -50.753981 
L 455.854428 -51.034461 
L 458.356081 -51.292187 
L 460.857734 -51.516483 
L 463.359387 -51.69795 
L 465.86104 -51.828876 
L 468.362693 -51.903591 
L 470.864346 -51.918728 
L 473.365999 -51.873377 
L 475.867651 -51.769084 
L 478.369304 -51.609721 
L 480.870957 -51.401208 
L 483.37261 -51.151124 
L 485.874263 -50.868239 
L 488.375916 -50.561989 
L 490.877569 -50.241958 
L 493.379222 -49.917383 
L 495.880874 -49.596731 
L 498.382527 -49.28737 
L 500.88418 -48.995333 
L 503.385833 -48.725207 
L 505.887486 -48.480115 
L 508.389139 -48.261786 
L 510.890792 -48.070709 
L 513.392445 -47.90632 
L 515.894097 -47.767227 
L 518.39575 -47.651434 
L 520.897403 -47.556561 
L 523.399056 -47.480035 
L 525.900709 -47.419252 
L 528.402362 -47.371699 
L 530.904015 -47.335052 
L 533.405668 -47.307225 
L 535.90732 -47.286405 
L 535.90732 -47.234375 
L 535.90732 -47.234375 
L 533.405668 -47.234375 
L 530.904015 -47.234375 
L 528.402362 -47.234375 
L 525.900709 -47.234375 
L 523.399056 -47.234375 
L 520.897403 -47.234375 
L 518.39575 -47.234375 
L 515.894097 -47.234375 
L 513.392445 -47.234375 
L 510.890792 -47.234375 
L 508.389139 -47.234375 
L 505.887486 -47.234375 
L 503.385833 -47.234375 
L 500.88418 -47.234375 
L 498.382527 -47.234375 
L 495.880874 -47.234375 
L 493.379222 -47.234375 
L 490.877569 -47.234375 
L 488.375916 -47.234375 
L 485.874263 -47.234375 
L 483.37261 -47.234375 
L 480.870957 -47.234375 
L 478.369304 -47.234375 
L 475.867651 -47.234375 
L 473.365999 -47.234375 
L 470.864346 -47.234375 
L 468.362693 -47.234375 
L 465.86104 -47.234375 
L 463.359387 -47.234375 
L 460.857734 -47.234375 
L 458.356081 -47.234375 
L 455.854428 -47.234375 
L 453.352776 -47.234375 
L 450.851123 -47.234375 
L 448.34947 -47.234375 
L 445.847817 -47.234375 
L 443.346164 -47.234375 
L 440.844511 -47.234375 
L 438.342858 -47.234375 
L 435.841205 -47.234375 
L 433.339553 -47.234375 
L 430.8379 -47.234375 
L 428.336247 -47.234375 
L 425.834594 -47.234375 
L 423.332941 -47.234375 
L 420.831288 -47.234375 
L 418.329635 -47.234375 
L 415.827982 -47.234375 
L 413.32633 -47.234375 
L 410.824677 -47.234375 
L 408.323024 -47.234375 
L 405.821371 -47.234375 
L 403.319718 -47.234375 
L 400.818065 -47.234375 
L 398.316412 -47.234375 
L 395.814759 -47.234375 
L 393.313107 -47.234375 
L 390.811454 -47.234375 
L 388.309801 -47.234375 
L 385.808148 -47.234375 
L 383.306495 -47.234375 
L 380.804842 -47.234375 
L 378.303189 -47.234375 
L 375.801536 -47.234375 
L 373.299884 -47.234375 
L 370.798231 -47.234375 
L 368.296578 -47.234375 
L 365.794925 -47.234375 
L 363.293272 -47.234375 
L 360.791619 -47.234375 
L 358.289966 -47.234375 
L 355.788313 -47.234375 
L 353.286661 -47.234375 
L 350.785008 -47.234375 
L 348.283355 -47.234375 
L 345.781702 -47.234375 
L 343.280049 -47.234375 
L 340.778396 -47.234375 
L 338.276743 -47.234375 
L 335.77509 -47.234375 
L 333.273438 -47.234375 
L 330.771785 -47.234375 
L 328.270132 -47.234375 
L 325.768479 -47.234375 
L 323.266826 -47.234375 
L 320.765173 -47.234375 
L 318.26352 -47.234375 
L 315.761867 -47.234375 
L 313.260214 -47.234375 
L 310.758562 -47.234375 
L 308.256909 -47.234375 
L 305.755256 -47.234375 
L 303.253603 -47.234375 
L 300.75195 -47.234375 
L 298.250297 -47.234375 
L 295.748644 -47.234375 
L 293.246991 -47.234375 
L 290.745339 -47.234375 
L 288.243686 -47.234375 
L 285.742033 -47.234375 
L 283.24038 -47.234375 
L 280.738727 -47.234375 
L 278.237074 -47.234375 
L 275.735421 -47.234375 
L 273.233768 -47.234375 
L 270.732116 -47.234375 
L 268.230463 -47.234375 
z
" style="stroke: #00bfff; stroke-opacity: 0.6"/>
    </defs>
    <g clip-path="url(#p68e887a871)">
     <use xlink:href="#m981d70c19d" x="0" y="352.314375" style="fill: #00bfff; fill-opacity: 0.6; stroke: #00bfff; stroke-opacity: 0.6"/>
    </g>
   </g>
   <g id="matplotlib.axis_1">
    <g id="xtick_1">
     <g id="line2d_1">
      <path d="M 17.519531 305.08 
L 17.519531 7.2 
" clip-path="url(#p68e887a871)" style="fill: none; stroke-dasharray: 2.96,1.28; stroke-dashoffset: 0; stroke: #30363d; stroke-opacity: 0.3; stroke-width: 0.8"/>
     </g>
     <g id="line2d_2">
      <defs>
       <path id="m0514304149" d="M 0 0 
L 0 3.5 
" style="stroke: #ffffff; stroke-width: 0.8"/>
      </defs>
      <g>
       <use xlink:href="#m0514304149" x="17.519531" y="305.08" style="fill: #ffffff; stroke: #ffffff; stroke-width: 0.8"/>
      </g>
     </g>
     <g id="text_1">
      <text style="font-size: 14px; font-family: 'DejaVu Sans', 'Bitstream Vera Sans', 'Computer Modern Sans Serif', 'Lucida Grande', 'Verdana', 'Geneva', 'Lucid', 'Arial', 'Helvetica', 'Avant Garde', sans-serif; text-anchor: middle; fill: #ffffff" x="17.519531" y="322.717812" transform="rotate(-0 17.519531 322.717812)">−4</text>
     </g>
    </g>
    <g id="xtick_2">
     <g id="line2d_3">
      <path d="M 126.228663 305.08 
L 126.228663 7.2 
" clip-path="url(#p68e887a871)" style="fill: none; stroke-dasharray: 2.96,1.28; stroke-dashoffset: 0; stroke: #30363d; stroke-opacity: 0.3; stroke-width: 0.8"/>
     </g>
     <g id="line2d_4">
      <g>
       <use xlink:href="#m0514304149" x="126.228663" y="305.08" style="fill: #ffffff; stroke: #ffffff; stroke-width: 0.8"/>
      </g>
     </g>
     <g id="text_2">
      <text style="font-size: 14px; font-family: 'DejaVu Sans', 'Bitstream Vera Sans', 'Computer Modern Sans Serif', 'Lucida Grande', 'Verdana', 'Geneva', 'Lucid', 'Arial', 'Helvetica', 'Avant Garde', sans-serif; text-anchor: middle; fill: #ffffff" x="126.228663" y="322.717812" transform="rotate(-0 126.228663 322.717812)">−2</text>
     </g>
    </g>
    <g id="xtick_3">
     <g id="line2d_5">
      <path d="M 234.937796 305.08 
L 234.937796 7.2 
" clip-path="url(#p68e887a871)" style="fill: none; stroke-dasharray: 2.96,1.28; stroke-dashoffset: 0; stroke: #30363d; stroke-opacity: 0.3; stroke-width: 0.8"/>
     </g>
     <g id="line2d_6">
      <g>
       <use xlink:href="#m0514304149" x="234.937796" y="305.08" style="fill: #ffffff; stroke: #ffffff; stroke-width: 0.8"/>
      </g>
     </g>
     <g id="text_3">
      <text style="font-size: 14px; font-family: 'DejaVu Sans', 'Bitstream Vera Sans', 'Computer Modern Sans Serif', 'Lucida Grande', 'Verdana', 'Geneva', 'Lucid', 'Arial', 'Helvetica', 'Avant Garde', sans-serif; text-anchor: middle; fill: #ffffff" x="234.937796" y="322.717812" transform="rotate(-0 234.937796 322.717812)">0</text>
     </g>
    </g>
    <g id="xtick_4">
     <g id="line2d_7">
      <path d="M 343.646928 305.08 
L 343.646928 7.2 
" clip-path="url(#p68e887a871)" style="fill: none; stroke-dasharray: 2.96,1.28; stroke-dashoffset: 0; stroke: #30363d; stroke-opacity: 0.3; stroke-width: 0.8"/>
     </g>
     <g id="line2d_8">
      <g>
       <use xlink:href="#m0514304149" x="343.646928" y="305.08" style="fill: #ffffff; stroke: #ffffff; stroke-width: 0.8"/>
      </g>
     </g>
     <g id="text_4">
      <text style="font-size: 14px; font-family: 'DejaVu Sans', 'Bitstream Vera Sans', 'Computer Modern Sans Serif', 'Lucida Grande', 'Verdana', 'Geneva', 'Lucid', 'Arial', 'Helvetica', 'Avant Garde', sans-serif; text-anchor: middle; fill: #ffffff" x="343.646928" y="322.717812" transform="rotate(-0 343.646928 322.717812)">2</text>
     </g>
    </g>
    <g id="xtick_5">
     <g id="line2d_9">
      <path d="M 452.35606 305.08 
L 452.35606 7.2 
" clip-path="url(#p68e887a871)" style="fill: none; stroke-dasharray: 2.96,1.28; stroke-dashoffset: 0; stroke: #30363d; stroke-opacity: 0.3; stroke-width: 0.8"/>
     </g>
     <g id="line2d_10">
      <g>
       <use xlink:href="#m0514304149" x="452.35606" y="305.08" style="fill: #ffffff; stroke: #ffffff; stroke-width: 0.8"/>
      </g>
     </g>
     <g id="text_5">
      <text style="font-size: 14px; font-family: 'DejaVu Sans', 'Bitstream Vera Sans', 'Computer Modern Sans Serif', 'Lucida Grande', 'Verdana', 'Geneva', 'Lucid', 'Arial', 'Helvetica', 'Avant Garde', sans-serif; text-anchor: middle; fill: #ffffff" x="452.35606" y="322.717812" transform="rotate(-0 452.35606 322.717812)">4</text>
     </g>
    </g>
    <g id="text_6">
     <text style="font-size: 16px; font-family: 'DejaVu Sans', 'Bitstream Vera Sans', 'Computer Modern Sans Serif', 'Lucida Grande', 'Verdana', 'Geneva', 'Lucid', 'Arial', 'Helvetica', 'Avant Garde', sans-serif; text-anchor: middle; fill: #dde3ea" x="286.992859" y="341.786875" transform="rotate(-0 286.992859 341.786875)">Alternative Alignment Score</text>
    </g>
   </g>
   <g id="matplotlib.axis_2"/>
   <g id="line2d_11">
    <path d="M 38.078398 304.93171 
L 45.583357 304.665412 
L 50.586663 304.305893 
L 55.589968 303.702695 
L 60.593274 302.743547 
L 63.094927 302.090136 
L 65.59658 301.298253 
L 68.098233 300.351413 
L 70.599886 299.234444 
L 73.101538 297.934369 
L 75.603191 296.441297 
L 78.104844 294.749251 
L 80.606497 292.856857 
L 83.10815 290.767828 
L 85.609803 288.491144 
L 90.613109 283.435904 
L 95.616414 277.854242 
L 103.121373 268.939556 
L 115.629637 254.009897 
L 130.639555 236.352316 
L 135.64286 230.054797 
L 140.646166 223.280051 
L 145.649472 215.852484 
L 148.151125 211.83656 
L 150.652778 207.587783 
L 153.15443 203.082813 
L 155.656083 198.2995 
L 158.157736 193.218079 
L 160.659389 187.822596 
L 163.161042 182.102481 
L 165.662695 176.054132 
L 168.164348 169.682367 
L 173.167653 156.036616 
L 178.170959 141.405627 
L 193.180876 96.083009 
L 198.184182 82.244123 
L 200.685835 75.809886 
L 203.187488 69.741208 
L 205.689141 64.055097 
L 208.190794 58.757688 
L 210.692447 53.845851 
L 213.194099 49.30945 
L 215.695752 45.134043 
L 218.197405 41.303719 
L 220.699058 37.803848 
L 223.200711 34.62345 
L 225.702364 31.757013 
L 228.204017 29.205636 
L 230.70567 26.977449 
L 233.207322 25.087344 
L 235.708975 23.556141 
L 238.210628 22.409318 
L 240.712281 21.675484 
L 243.213934 21.384762 
L 245.715587 21.567204 
L 248.21724 22.251359 
L 250.718893 23.463026 
L 253.220545 25.224221 
L 255.722198 27.552326 
L 258.223851 30.459405 
L 260.725504 33.951623 
L 263.227157 38.028771 
L 265.72881 42.683869 
L 268.230463 47.902864 
L 270.732116 53.664463 
L 273.233768 59.940134 
L 275.735421 66.694321 
L 278.237074 73.884897 
L 283.24038 89.378371 
L 288.243686 105.984782 
L 298.250297 140.636872 
L 303.253603 157.768893 
L 308.256909 174.239635 
L 313.260214 189.723607 
L 315.761867 197.009587 
L 318.26352 203.952493 
L 320.765173 210.527217 
L 323.266826 216.712181 
L 325.768479 222.489675 
L 328.270132 227.846327 
L 330.771785 232.773675 
L 333.273438 237.268789 
L 335.77509 241.334876 
L 338.276743 244.981785 
L 340.778396 248.226345 
L 343.280049 251.092467 
L 345.781702 253.610941 
L 348.283355 255.818911 
L 350.785008 257.75899 
L 353.286661 259.478041 
L 358.289966 262.452398 
L 368.296578 267.889074 
L 373.299884 270.954421 
L 378.303189 274.450717 
L 383.306495 278.350667 
L 398.316412 290.674883 
L 403.319718 294.233087 
L 405.821371 295.805131 
L 408.323024 297.222571 
L 410.824677 298.47907 
L 413.32633 299.572751 
L 415.827982 300.505631 
L 418.329635 301.28292 
L 420.831288 301.912292 
L 423.332941 302.40317 
L 425.834594 302.7661 
L 430.8379 303.152985 
L 435.841205 303.163916 
L 440.844511 302.88951 
L 448.34947 302.14297 
L 460.857734 300.797892 
L 465.86104 300.485499 
L 470.864346 300.395647 
L 475.867651 300.545291 
L 480.870957 300.913167 
L 488.375916 301.752386 
L 503.385833 303.589168 
L 510.890792 304.243666 
L 518.39575 304.662941 
L 528.402362 304.942676 
L 535.90732 305.02797 
L 535.90732 305.02797 
" clip-path="url(#p68e887a871)" style="fill: none; stroke: #6b7280; stroke-width: 2; stroke-linecap: square"/>
   </g>
   <g id="line2d_12">
    <path d="M 267.375269 305.08 
L 267.375269 7.2 
" clip-path="url(#p68e887a871)" style="fill: none; stroke-dasharray: 5.55,2.4; stroke-dashoffset: 0; stroke: #00bfff; stroke-opacity: 0.8; stroke-width: 1.5"/>
   </g>
   <g id="patch_3">
    <path d="M 13.186952 305.08 
L 13.186952 7.2 
" style="fill: none; stroke: #30363d; stroke-width: 0.8; stroke-linejoin: miter; stroke-linecap: square"/>
   </g>
   <g id="patch_4">
    <path d="M 560.798767 305.08 
L 560.798767 7.2 
" style="fill: none; stroke: #30363d; stroke-width: 0.8; stroke-linejoin: miter; stroke-linecap: square"/>
   </g>
   <g id="patch_5">
    <path d="M 13.186952 305.08 
L 560.798767 305.08 
" style="fill: none; stroke: #30363d; stroke-width: 0.8; stroke-linejoin: miter; stroke-linecap: square"/>
   </g>
   <g id="patch_6">
    <path d="M 13.186952 7.2 
L 560.798767 7.2 
" style="fill: none; stroke: #30363d; stroke-width: 0.8; stroke-linejoin: miter; stroke-linecap: square"/>
   </g>
   <g id="text_7">
    <text style="font-weight: 700; font-size: 12px; font-family: 'DejaVu Sans', 'Bitstream Vera Sans', 'Computer Modern Sans Serif', 'Lucida Grande', 'Verdana', 'Geneva', 'Lucid', 'Arial', 'Helvetica', 'Avant Garde', sans-serif; fill: #00bfff" transform="translate(272.810726 149.701256)">Recoverable subgroup</text>
    <text style="font-weight: 700; font-size: 12px; font-family: 'DejaVu Sans', 'Bitstream Vera Sans', 'Computer Modern Sans Serif', 'Lucida Grande', 'Verdana', 'Geneva', 'Lucid', 'Arial', 'Helvetica', 'Avant Garde', sans-serif; fill: #00bfff" transform="translate(272.810726 163.232381)">(alternative mechanism)</text>
   </g>
  </g>
 </g>
 <defs>
  <clipPath id="p68e887a871">
   <rect x="13.186952" y="7.2" width="547.611815" height="297.88"/>
  </clipPath>
 </defs>
</svg>
