<?xml version="1.0" encoding="utf-8" standalone="no"?>
<!DOCTYPE svg PUBLIC "-//W3C//DTD SVG 1.1//EN"
  "http://www.w3.org/Graphics/SVG/1.1/DTD/svg11.dtd">
<svg xmlns:xlink="http://www.w3.org/1999/xlink" width="1728pt" height="648pt" viewBox="0 0 1728 648" xmlns="http://www.w3.org/2000/svg" version="1.1">
 <metadata>
  <rdf:RDF xmlns:dc="http://purl.org/dc/elements/1.1/" xmlns:cc="http://creativecommons.org/ns#" xmlns:rdf="http://www.w3.org/1999/02/22-rdf-syntax-ns#">
   <cc:Work>
    <dc:type rdf:resource="http://purl.org/dc/dcmitype/StillImage"/>
    <dc:date>2026-04-20T10:20:31.371355</dc:date>
    <dc:format>image/svg+xml</dc:format>
    <dc:creator>
     <cc:Agent>
      <dc:title>Matplotlib v3.10.8, https://matplotlib.org/</dc:title>
     </cc:Agent>
    </dc:creator>
   </cc:Work>
  </rdf:RDF>
 </metadata>
 <defs>
  <style type="text/css">*{stroke-linejoin: round; stroke-linecap: butt}</style>
 </defs>
 <g id="figure_1">
  <g id="patch_1">
   <path d="M 0 648 
L 1728 648 
L 1728 0 
L 0 0 
z
" style="fill: #0d1117"/>
  </g>
  <g id="axes_1">
   <g id="patch_2">
    <path d="M 216 576.72 
L 824.727273 576.72 
L 824.727273 77.76 
L 216 77.76 
z
" style="fill: #0d1117"/>
   </g>
   <g id="FillBetweenPolyCollection_1">
    <defs>
     <path id="m9a56d62c96" d="M 159.477584 -71.429088 
L 159.477584 -71.28 
L 162.399649 -71.28 
L 165.321715 -71.28 
L 168.24378 -71.28 
L 171.165846 -71.28 
L 174.087911 -71.28 
L 177.009977 -71.28 
L 179.932042 -71.28 
L 182.854108 -71.28 
L 185.776173 -71.28 
L 188.698238 -71.28 
L 191.620304 -71.28 
L 194.542369 -71.28 
L 197.464435 -71.28 
L 200.3865 -71.28 
L 203.308566 -71.28 
L 206.230631 -71.28 
L 209.152696 -71.28 
L 212.074762 -71.28 
L 214.996827 -71.28 
L 217.918893 -71.28 
L 220.840958 -71.28 
L 223.763024 -71.28 
L 226.685089 -71.28 
L 229.607155 -71.28 
L 232.52922 -71.28 
L 235.451285 -71.28 
L 238.373351 -71.28 
L 241.295416 -71.28 
L 244.217482 -71.28 
L 247.139547 -71.28 
L 250.061613 -71.28 
L 252.983678 -71.28 
L 255.905744 -71.28 
L 258.827809 -71.28 
L 261.749874 -71.28 
L 264.67194 -71.28 
L 267.594005 -71.28 
L 270.516071 -71.28 
L 273.438136 -71.28 
L 276.360202 -71.28 
L 279.282267 -71.28 
L 282.204332 -71.28 
L 285.126398 -71.28 
L 288.048463 -71.28 
L 290.970529 -71.28 
L 293.892594 -71.28 
L 296.81466 -71.28 
L 299.736725 -71.28 
L 302.658791 -71.28 
L 305.580856 -71.28 
L 308.502921 -71.28 
L 311.424987 -71.28 
L 314.347052 -71.28 
L 317.269118 -71.28 
L 320.191183 -71.28 
L 323.113249 -71.28 
L 326.035314 -71.28 
L 328.957379 -71.28 
L 331.879445 -71.28 
L 334.80151 -71.28 
L 337.723576 -71.28 
L 340.645641 -71.28 
L 343.567707 -71.28 
L 346.489772 -71.28 
L 349.411838 -71.28 
L 352.333903 -71.28 
L 355.255968 -71.28 
L 358.178034 -71.28 
L 361.100099 -71.28 
L 364.022165 -71.28 
L 366.94423 -71.28 
L 369.866296 -71.28 
L 372.788361 -71.28 
L 375.710427 -71.28 
L 378.632492 -71.28 
L 381.554557 -71.28 
L 384.476623 -71.28 
L 387.398688 -71.28 
L 390.320754 -71.28 
L 393.242819 -71.28 
L 396.164885 -71.28 
L 399.08695 -71.28 
L 402.009015 -71.28 
L 404.931081 -71.28 
L 407.853146 -71.28 
L 410.775212 -71.28 
L 413.697277 -71.28 
L 416.619343 -71.28 
L 419.541408 -71.28 
L 422.463474 -71.28 
L 425.385539 -71.28 
L 428.307604 -71.28 
L 431.22967 -71.28 
L 434.151735 -71.28 
L 437.073801 -71.28 
L 439.995866 -71.28 
L 442.917932 -71.28 
L 445.839997 -71.28 
L 448.762063 -71.28 
L 451.684128 -71.28 
L 454.606193 -71.28 
L 457.528259 -71.28 
L 460.450324 -71.28 
L 463.37239 -71.28 
L 466.294455 -71.28 
L 469.216521 -71.28 
L 472.138586 -71.28 
L 475.060651 -71.28 
L 477.982717 -71.28 
L 480.904782 -71.28 
L 483.826848 -71.28 
L 486.748913 -71.28 
L 489.670979 -71.28 
L 492.593044 -71.28 
L 495.51511 -71.28 
L 498.437175 -71.28 
L 501.35924 -71.28 
L 504.281306 -71.28 
L 507.203371 -71.28 
L 510.125437 -71.28 
L 513.047502 -71.28 
L 515.969568 -71.28 
L 518.891633 -71.28 
L 521.813699 -71.28 
L 524.735764 -71.28 
L 527.657829 -71.28 
L 530.579895 -71.28 
L 533.50196 -71.28 
L 536.424026 -71.28 
L 539.346091 -71.28 
L 542.268157 -71.28 
L 545.190222 -71.28 
L 548.112287 -71.28 
L 551.034353 -71.28 
L 553.956418 -71.28 
L 556.878484 -71.28 
L 559.800549 -71.28 
L 562.722615 -71.28 
L 565.64468 -71.28 
L 568.566746 -71.28 
L 571.488811 -71.28 
L 574.410876 -71.28 
L 577.332942 -71.28 
L 580.255007 -71.28 
L 583.177073 -71.28 
L 586.099138 -71.28 
L 589.021204 -71.28 
L 591.943269 -71.28 
L 594.865334 -71.28 
L 597.7874 -71.28 
L 600.709465 -71.28 
L 603.631531 -71.28 
L 606.553596 -71.28 
L 609.475662 -71.28 
L 612.397727 -71.28 
L 615.319793 -71.28 
L 618.241858 -71.28 
L 621.163923 -71.28 
L 624.085989 -71.28 
L 627.008054 -71.28 
L 629.93012 -71.28 
L 632.852185 -71.28 
L 635.774251 -71.28 
L 638.696316 -71.28 
L 641.618382 -71.28 
L 644.540447 -71.28 
L 647.462512 -71.28 
L 650.384578 -71.28 
L 653.306643 -71.28 
L 656.228709 -71.28 
L 659.150774 -71.28 
L 662.07284 -71.28 
L 664.994905 -71.28 
L 667.91697 -71.28 
L 670.839036 -71.28 
L 673.761101 -71.28 
L 676.683167 -71.28 
L 679.605232 -71.28 
L 682.527298 -71.28 
L 685.449363 -71.28 
L 688.371429 -71.28 
L 691.293494 -71.28 
L 694.215559 -71.28 
L 697.137625 -71.28 
L 700.05969 -71.28 
L 702.981756 -71.28 
L 705.903821 -71.28 
L 708.825887 -71.28 
L 711.747952 -71.28 
L 714.670018 -71.28 
L 717.592083 -71.28 
L 720.514148 -71.28 
L 723.436214 -71.28 
L 726.358279 -71.28 
L 729.280345 -71.28 
L 732.20241 -71.28 
L 735.124476 -71.28 
L 738.046541 -71.28 
L 740.968606 -71.28 
L 740.968606 -71.402803 
L 740.968606 -71.402803 
L 738.046541 -71.434649 
L 735.124476 -71.473692 
L 732.20241 -71.521278 
L 729.280345 -71.578937 
L 726.358279 -71.648396 
L 723.436214 -71.731591 
L 720.514148 -71.830666 
L 717.592083 -71.947984 
L 714.670018 -72.086127 
L 711.747952 -72.247888 
L 708.825887 -72.436263 
L 705.903821 -72.654444 
L 702.981756 -72.905798 
L 700.05969 -73.193843 
L 697.137625 -73.522228 
L 694.215559 -73.894701 
L 691.293494 -74.315071 
L 688.371429 -74.787181 
L 685.449363 -75.314861 
L 682.527298 -75.90189 
L 679.605232 -76.551956 
L 676.683167 -77.268604 
L 673.761101 -78.055196 
L 670.839036 -78.914859 
L 667.91697 -79.850431 
L 664.994905 -80.86441 
L 662.07284 -81.958891 
L 659.150774 -83.135501 
L 656.228709 -84.395329 
L 653.306643 -85.738845 
L 650.384578 -87.165821 
L 647.462512 -88.675236 
L 644.540447 -90.265183 
L 641.618382 -91.932773 
L 638.696316 -93.674039 
L 635.774251 -95.483842 
L 632.852185 -97.355799 
L 629.93012 -99.282213 
L 627.008054 -101.254039 
L 624.085989 -103.260875 
L 621.163923 -105.290988 
L 618.241858 -107.331391 
L 615.319793 -109.367964 
L 612.397727 -111.385624 
L 609.475662 -113.368561 
L 606.553596 -115.300514 
L 603.631531 -117.165106 
L 600.709465 -118.946222 
L 597.7874 -120.628421 
L 594.865334 -122.197371 
L 591.943269 -123.640301 
L 589.021204 -124.946442 
L 586.099138 -126.107451 
L 583.177073 -127.117797 
L 580.255007 -127.975093 
L 577.332942 -128.680364 
L 574.410876 -129.238226 
L 571.488811 -129.656982 
L 568.566746 -129.948617 
L 565.64468 -130.12869 
L 562.722615 -130.216135 
L 559.800549 -130.232958 
L 556.878484 -130.20386 
L 553.956418 -130.155777 
L 551.034353 -130.117375 
L 548.112287 -130.118496 
L 545.190222 -130.189593 
L 542.268157 -130.361158 
L 539.346091 -130.663168 
L 536.424026 -131.124574 
L 533.50196 -131.772822 
L 530.579895 -132.633456 
L 527.657829 -133.729766 
L 524.735764 -135.082524 
L 521.813699 -136.709781 
L 518.891633 -138.626736 
L 515.969568 -140.845656 
L 513.047502 -143.375854 
L 510.125437 -146.223691 
L 507.203371 -149.392612 
L 504.281306 -152.883184 
L 501.35924 -156.69313 
L 498.437175 -160.817358 
L 495.51511 -165.247962 
L 492.593044 -169.974207 
L 489.670979 -174.982488 
L 486.748913 -180.256275 
L 483.826848 -185.776042 
L 480.904782 -191.519216 
L 477.982717 -197.460126 
L 475.060651 -203.570002 
L 472.138586 -209.817021 
L 469.216521 -216.166422 
L 466.294455 -222.580706 
L 463.37239 -229.019929 
L 460.450324 -235.442092 
L 457.528259 -241.803637 
L 454.606193 -248.060039 
L 451.684128 -254.166475 
L 448.762063 -260.07857 
L 445.839997 -265.753187 
L 442.917932 -271.149239 
L 439.995866 -276.228491 
L 437.073801 -280.956325 
L 434.151735 -285.302442 
L 431.22967 -289.24146 
L 428.307604 -292.7534 
L 425.385539 -295.824025 
L 422.463474 -298.445028 
L 419.541408 -300.614051 
L 416.619343 -302.334548 
L 413.697277 -303.615478 
L 410.775212 -304.470859 
L 407.853146 -304.919189 
L 404.931081 -304.982755 
L 402.009015 -304.686865 
L 399.08695 -304.059024 
L 396.164885 -303.12808 
L 393.242819 -301.923379 
L 390.320754 -300.473943 
L 387.398688 -298.807705 
L 384.476623 -296.950817 
L 381.554557 -294.927053 
L 378.632492 -292.757312 
L 375.710427 -290.459241 
L 372.788361 -288.046978 
L 369.866296 -285.531016 
L 366.94423 -282.918184 
L 364.022165 -280.211752 
L 361.100099 -277.411639 
L 358.178034 -274.514716 
L 355.255968 -271.51521 
L 352.333903 -268.405164 
L 349.411838 -265.174968 
L 346.489772 -261.813932 
L 343.567707 -258.310884 
L 340.645641 -254.654773 
L 337.723576 -250.835273 
L 334.80151 -246.843356 
L 331.879445 -242.671823 
L 328.957379 -238.315775 
L 326.035314 -233.773019 
L 323.113249 -229.044384 
L 320.191183 -224.133944 
L 317.269118 -219.049142 
L 314.347052 -213.800811 
L 311.424987 -208.403094 
L 308.502921 -202.873259 
L 305.580856 -197.231428 
L 302.658791 -191.500225 
L 299.736725 -185.70435 
L 296.81466 -179.870108 
L 293.892594 -174.024891 
L 290.970529 -168.196656 
L 288.048463 -162.413383 
L 285.126398 -156.702565 
L 282.204332 -151.090713 
L 279.282267 -145.602914 
L 276.360202 -140.262442 
L 273.438136 -135.090423 
L 270.516071 -130.105575 
L 267.594005 -125.324018 
L 264.67194 -120.759145 
L 261.749874 -116.421576 
L 258.827809 -112.319158 
L 255.905744 -108.457035 
L 252.983678 -104.837761 
L 250.061613 -101.461461 
L 247.139547 -98.326016 
L 244.217482 -95.427284 
L 241.295416 -92.759332 
L 238.373351 -90.314678 
L 235.451285 -88.084536 
L 232.52922 -86.059061 
L 229.607155 -84.227585 
L 226.685089 -82.578834 
L 223.763024 -81.101141 
L 220.840958 -79.782632 
L 217.918893 -78.611399 
L 214.996827 -77.575652 
L 212.074762 -76.663846 
L 209.152696 -75.864792 
L 206.230631 -75.167753 
L 203.308566 -74.562511 
L 200.3865 -74.039423 
L 197.464435 -73.589465 
L 194.542369 -73.204251 
L 191.620304 -72.876046 
L 188.698238 -72.597768 
L 185.776173 -72.362977 
L 182.854108 -72.165857 
L 179.932042 -72.001189 
L 177.009977 -71.864325 
L 174.087911 -71.751148 
L 171.165846 -71.658041 
L 168.24378 -71.58184 
L 165.321715 -71.519802 
L 162.399649 -71.46956 
L 159.477584 -71.429088 
z
"/>
    </defs>
    <g clip-path="url(#p117aab65e0)">
     <use xlink:href="#m9a56d62c96" x="0" y="648" style="fill: #00bfff; fill-opacity: 0.1"/>
    </g>
   </g>
   <g id="FillBetweenPolyCollection_2">
    <defs>
     <path id="m2d842d52ae" d="M 191.171175 -71.368244 
L 191.171175 -71.28 
L 194.479642 -71.28 
L 197.788109 -71.28 
L 201.096576 -71.28 
L 204.405043 -71.28 
L 207.71351 -71.28 
L 211.021977 -71.28 
L 214.330444 -71.28 
L 217.638911 -71.28 
L 220.947377 -71.28 
L 224.255844 -71.28 
L 227.564311 -71.28 
L 230.872778 -71.28 
L 234.181245 -71.28 
L 237.489712 -71.28 
L 240.798179 -71.28 
L 244.106646 -71.28 
L 247.415113 -71.28 
L 250.72358 -71.28 
L 254.032047 -71.28 
L 257.340514 -71.28 
L 260.648981 -71.28 
L 263.957448 -71.28 
L 267.265915 -71.28 
L 270.574382 -71.28 
L 273.882849 -71.28 
L 277.191316 -71.28 
L 280.499783 -71.28 
L 283.80825 -71.28 
L 287.116716 -71.28 
L 290.425183 -71.28 
L 293.73365 -71.28 
L 297.042117 -71.28 
L 300.350584 -71.28 
L 303.659051 -71.28 
L 306.967518 -71.28 
L 310.275985 -71.28 
L 313.584452 -71.28 
L 316.892919 -71.28 
L 320.201386 -71.28 
L 323.509853 -71.28 
L 326.81832 -71.28 
L 330.126787 -71.28 
L 333.435254 -71.28 
L 336.743721 -71.28 
L 340.052188 -71.28 
L 343.360655 -71.28 
L 346.669122 -71.28 
L 349.977588 -71.28 
L 353.286055 -71.28 
L 356.594522 -71.28 
L 359.902989 -71.28 
L 363.211456 -71.28 
L 366.519923 -71.28 
L 369.82839 -71.28 
L 373.136857 -71.28 
L 376.445324 -71.28 
L 379.753791 -71.28 
L 383.062258 -71.28 
L 386.370725 -71.28 
L 389.679192 -71.28 
L 392.987659 -71.28 
L 396.296126 -71.28 
L 399.604593 -71.28 
L 402.91306 -71.28 
L 406.221527 -71.28 
L 409.529994 -71.28 
L 412.838461 -71.28 
L 416.146927 -71.28 
L 419.455394 -71.28 
L 422.763861 -71.28 
L 426.072328 -71.28 
L 429.380795 -71.28 
L 432.689262 -71.28 
L 435.997729 -71.28 
L 439.306196 -71.28 
L 442.614663 -71.28 
L 445.92313 -71.28 
L 449.231597 -71.28 
L 452.540064 -71.28 
L 455.848531 -71.28 
L 459.156998 -71.28 
L 462.465465 -71.28 
L 465.773932 -71.28 
L 469.082399 -71.28 
L 472.390866 -71.28 
L 475.699333 -71.28 
L 479.0078 -71.28 
L 482.316266 -71.28 
L 485.624733 -71.28 
L 488.9332 -71.28 
L 492.241667 -71.28 
L 495.550134 -71.28 
L 498.858601 -71.28 
L 502.167068 -71.28 
L 505.475535 -71.28 
L 508.784002 -71.28 
L 512.092469 -71.28 
L 515.400936 -71.28 
L 518.709403 -71.28 
L 522.01787 -71.28 
L 525.326337 -71.28 
L 528.634804 -71.28 
L 531.943271 -71.28 
L 535.251738 -71.28 
L 538.560205 -71.28 
L 541.868672 -71.28 
L 545.177138 -71.28 
L 548.485605 -71.28 
L 551.794072 -71.28 
L 555.102539 -71.28 
L 558.411006 -71.28 
L 561.719473 -71.28 
L 565.02794 -71.28 
L 568.336407 -71.28 
L 571.644874 -71.28 
L 574.953341 -71.28 
L 578.261808 -71.28 
L 581.570275 -71.28 
L 584.878742 -71.28 
L 588.187209 -71.28 
L 591.495676 -71.28 
L 594.804143 -71.28 
L 598.11261 -71.28 
L 601.421077 -71.28 
L 604.729544 -71.28 
L 608.038011 -71.28 
L 611.346477 -71.28 
L 614.654944 -71.28 
L 617.963411 -71.28 
L 621.271878 -71.28 
L 624.580345 -71.28 
L 627.888812 -71.28 
L 631.197279 -71.28 
L 634.505746 -71.28 
L 637.814213 -71.28 
L 641.12268 -71.28 
L 644.431147 -71.28 
L 647.739614 -71.28 
L 651.048081 -71.28 
L 654.356548 -71.28 
L 657.665015 -71.28 
L 660.973482 -71.28 
L 664.281949 -71.28 
L 667.590416 -71.28 
L 670.898883 -71.28 
L 674.207349 -71.28 
L 677.515816 -71.28 
L 680.824283 -71.28 
L 684.13275 -71.28 
L 687.441217 -71.28 
L 690.749684 -71.28 
L 694.058151 -71.28 
L 697.366618 -71.28 
L 700.675085 -71.28 
L 703.983552 -71.28 
L 707.292019 -71.28 
L 710.600486 -71.28 
L 713.908953 -71.28 
L 717.21742 -71.28 
L 720.525887 -71.28 
L 723.834354 -71.28 
L 727.142821 -71.28 
L 730.451288 -71.28 
L 733.759755 -71.28 
L 737.068222 -71.28 
L 740.376688 -71.28 
L 743.685155 -71.28 
L 746.993622 -71.28 
L 750.302089 -71.28 
L 753.610556 -71.28 
L 756.919023 -71.28 
L 760.22749 -71.28 
L 763.535957 -71.28 
L 766.844424 -71.28 
L 770.152891 -71.28 
L 773.461358 -71.28 
L 776.769825 -71.28 
L 780.078292 -71.28 
L 783.386759 -71.28 
L 786.695226 -71.28 
L 790.003693 -71.28 
L 793.31216 -71.28 
L 796.620627 -71.28 
L 799.929094 -71.28 
L 803.23756 -71.28 
L 806.546027 -71.28 
L 809.854494 -71.28 
L 813.162961 -71.28 
L 816.471428 -71.28 
L 819.779895 -71.28 
L 823.088362 -71.28 
L 826.396829 -71.28 
L 829.705296 -71.28 
L 833.013763 -71.28 
L 836.32223 -71.28 
L 839.630697 -71.28 
L 842.939164 -71.28 
L 846.247631 -71.28 
L 849.556098 -71.28 
L 849.556098 -71.332898 
L 849.556098 -71.332898 
L 846.247631 -71.357776 
L 842.939164 -71.392398 
L 839.630697 -71.439652 
L 836.32223 -71.502894 
L 833.013763 -71.585862 
L 829.705296 -71.692533 
L 826.396829 -71.826886 
L 823.088362 -71.992593 
L 819.779895 -72.192622 
L 816.471428 -72.428805 
L 813.162961 -72.70137 
L 809.854494 -73.008517 
L 806.546027 -73.346072 
L 803.23756 -73.707296 
L 799.929094 -74.082888 
L 796.620627 -74.461223 
L 793.31216 -74.828854 
L 790.003693 -75.171236 
L 786.695226 -75.473654 
L 783.386759 -75.722251 
L 780.078292 -75.905079 
L 776.769825 -76.013046 
L 773.461358 -76.040667 
L 770.152891 -75.986525 
L 766.844424 -75.853393 
L 763.535957 -75.647997 
L 760.22749 -75.380451 
L 756.919023 -75.063439 
L 753.610556 -74.711213 
L 750.302089 -74.338547 
L 746.993622 -73.959725 
L 743.685155 -73.587679 
L 740.376688 -73.233331 
L 737.068222 -72.905187 
L 733.759755 -72.609178 
L 730.451288 -72.348738 
L 727.142821 -72.125063 
L 723.834354 -71.937509 
L 720.525887 -71.784064 
L 717.21742 -71.661845 
L 713.908953 -71.567571 
L 710.600486 -71.497997 
L 707.292019 -71.450276 
L 703.983552 -71.422257 
L 700.675085 -71.412712 
L 697.366618 -71.421506 
L 694.058151 -71.449699 
L 690.749684 -71.499604 
L 687.441217 -71.574771 
L 684.13275 -71.679909 
L 680.824283 -71.820714 
L 677.515816 -72.003599 
L 674.207349 -72.235309 
L 670.898883 -72.522416 
L 667.590416 -72.870714 
L 664.281949 -73.284526 
L 660.973482 -73.765994 
L 657.665015 -74.3144 
L 654.356548 -74.925612 
L 651.048081 -75.591747 
L 647.739614 -76.301131 
L 644.431147 -77.038628 
L 641.12268 -77.786372 
L 637.814213 -78.524909 
L 634.505746 -79.234671 
L 631.197279 -79.897696 
L 627.888812 -80.499447 
L 624.580345 -81.030529 
L 621.271878 -81.488137 
L 617.963411 -81.877044 
L 614.654944 -82.209989 
L 611.346477 -82.507378 
L 608.038011 -82.796269 
L 604.729544 -83.108701 
L 601.421077 -83.479486 
L 598.11261 -83.943638 
L 594.804143 -84.533665 
L 591.495676 -85.276957 
L 588.187209 -86.193499 
L 584.878742 -87.294128 
L 581.570275 -88.579484 
L 578.261808 -90.039784 
L 574.953341 -91.655446 
L 571.644874 -93.398568 
L 568.336407 -95.235145 
L 565.02794 -97.127898 
L 561.719473 -99.03948 
L 558.411006 -100.935825 
L 555.102539 -102.789349 
L 551.794072 -104.581735 
L 548.485605 -106.306049 
L 545.177138 -107.968002 
L 541.868672 -109.586248 
L 538.560205 -111.191717 
L 535.251738 -112.826055 
L 531.943271 -114.539372 
L 528.634804 -116.387502 
L 525.326337 -118.429048 
L 522.01787 -120.722431 
L 518.709403 -123.323115 
L 515.400936 -126.281123 
L 512.092469 -129.63886 
L 508.784002 -133.429231 
L 505.475535 -137.674008 
L 502.167068 -142.382447 
L 498.858601 -147.550217 
L 495.550134 -153.158771 
L 492.241667 -159.175397 
L 488.9332 -165.554182 
L 485.624733 -172.238126 
L 482.316266 -179.162505 
L 479.0078 -186.259429 
L 475.699333 -193.463276 
L 472.390866 -200.716497 
L 469.082399 -207.975085 
L 465.773932 -215.2129 
L 462.465465 -222.424141 
L 459.156998 -229.623383 
L 455.848531 -236.842955 
L 452.540064 -244.127792 
L 449.231597 -251.528294 
L 445.92313 -259.092074 
L 442.614663 -266.855666 
L 439.306196 -274.837329 
L 435.997729 -283.031922 
L 432.689262 -291.408567 
L 429.380795 -299.911357 
L 426.072328 -308.462984 
L 422.763861 -316.970666 
L 419.455394 -325.333506 
L 416.146927 -333.450167 
L 412.838461 -341.225804 
L 409.529994 -348.577294 
L 406.221527 -355.436128 
L 402.91306 -361.748686 
L 399.604593 -367.474006 
L 396.296126 -372.579535 
L 392.987659 -377.035611 
L 389.679192 -380.809608 
L 386.370725 -383.860686 
L 383.062258 -386.135988 
L 379.753791 -387.56894 
L 376.445324 -388.08 
L 373.136857 -387.579902 
L 369.82839 -385.975142 
L 366.519923 -383.175159 
L 363.211456 -379.100518 
L 359.902989 -373.691244 
L 356.594522 -366.91448 
L 353.286055 -358.770699 
L 349.977588 -349.297847 
L 346.669122 -338.573008 
L 343.360655 -326.711412 
L 340.052188 -313.862864 
L 336.743721 -300.205917 
L 333.435254 -285.940287 
L 330.126787 -271.278182 
L 326.81832 -256.43525 
L 323.509853 -241.621852 
L 320.201386 -227.035277 
L 316.892919 -212.853355 
L 313.584452 -199.229743 
L 310.275985 -186.290951 
L 306.967518 -174.135032 
L 303.659051 -162.831695 
L 300.350584 -152.42354 
L 297.042117 -142.928135 
L 293.73365 -134.34063 
L 290.425183 -126.636724 
L 287.116716 -119.775835 
L 283.80825 -113.704394 
L 280.499783 -108.359212 
L 277.191316 -103.670864 
L 273.882849 -99.567021 
L 270.574382 -95.975604 
L 267.265915 -92.827637 
L 263.957448 -90.059626 
L 260.648981 -87.615344 
L 257.340514 -85.446911 
L 254.032047 -83.515139 
L 250.72358 -81.789196 
L 247.415113 -80.245687 
L 244.106646 -78.867326 
L 240.798179 -77.641394 
L 237.489712 -76.558175 
L 234.181245 -75.609544 
L 230.872778 -74.787827 
L 227.564311 -74.085006 
L 224.255844 -73.492273 
L 220.947377 -72.999914 
L 217.638911 -72.597437 
L 214.330444 -72.273881 
L 211.021977 -72.018201 
L 207.71351 -71.819672 
L 204.405043 -71.66824 
L 201.096576 -71.554792 
L 197.788109 -71.471325 
L 194.479642 -71.411023 
L 191.171175 -71.368244 
z
"/>
    </defs>
    <g clip-path="url(#p117aab65e0)">
     <use xlink:href="#m2d842d52ae" x="0" y="648" style="fill: #ff4d4d; fill-opacity: 0.1"/>
    </g>
   </g>
   <g id="matplotlib.axis_1"/>
   <g id="matplotlib.axis_2"/>
   <g id="line2d_1">
    <path d="M 159.477584 576.570912 
L 171.165846 576.341959 
L 179.932042 575.998811 
L 188.698238 575.402232 
L 194.542369 574.795749 
L 200.3865 573.960577 
L 206.230631 572.832247 
L 212.074762 571.336154 
L 214.996827 570.424348 
L 217.918893 569.388601 
L 220.840958 568.217368 
L 223.763024 566.898859 
L 226.685089 565.421166 
L 229.607155 563.772415 
L 232.52922 561.940939 
L 235.451285 559.915464 
L 238.373351 557.685322 
L 241.295416 555.240668 
L 244.217482 552.572716 
L 247.139547 549.673984 
L 250.061613 546.538539 
L 252.983678 543.162239 
L 255.905744 539.542965 
L 258.827809 535.680842 
L 261.749874 531.578424 
L 264.67194 527.240855 
L 267.594005 522.675982 
L 273.438136 512.909577 
L 279.282267 502.397086 
L 285.126398 491.297435 
L 293.892594 473.975109 
L 305.580856 450.768572 
L 311.424987 439.596906 
L 317.269118 428.950858 
L 323.113249 418.955616 
L 328.957379 409.684225 
L 334.80151 401.156644 
L 340.645641 393.345227 
L 346.489772 386.186068 
L 352.333903 379.594836 
L 358.178034 373.485284 
L 364.022165 367.788248 
L 369.866296 362.468984 
L 375.710427 357.540759 
L 381.554557 353.072947 
L 384.476623 351.049183 
L 387.398688 349.192295 
L 390.320754 347.526057 
L 393.242819 346.076621 
L 396.164885 344.87192 
L 399.08695 343.940976 
L 402.009015 343.313135 
L 404.931081 343.017245 
L 407.853146 343.080811 
L 410.775212 343.529141 
L 413.697277 344.384522 
L 416.619343 345.665452 
L 419.541408 347.385949 
L 422.463474 349.554972 
L 425.385539 352.175975 
L 428.307604 355.2466 
L 431.22967 358.75854 
L 434.151735 362.697558 
L 437.073801 367.043675 
L 439.995866 371.771509 
L 442.917932 376.850761 
L 445.839997 382.246813 
L 451.684128 393.833525 
L 457.528259 406.196363 
L 477.982717 450.539874 
L 483.826848 462.223958 
L 486.748913 467.743725 
L 489.670979 473.017512 
L 492.593044 478.025793 
L 495.51511 482.752038 
L 498.437175 487.182642 
L 501.35924 491.30687 
L 504.281306 495.116816 
L 507.203371 498.607388 
L 510.125437 501.776309 
L 513.047502 504.624146 
L 515.969568 507.154344 
L 518.891633 509.373264 
L 521.813699 511.290219 
L 524.735764 512.917476 
L 527.657829 514.270234 
L 530.579895 515.366544 
L 533.50196 516.227178 
L 536.424026 516.875426 
L 539.346091 517.336832 
L 542.268157 517.638842 
L 548.112287 517.881504 
L 556.878484 517.79614 
L 562.722615 517.783865 
L 568.566746 518.051383 
L 571.488811 518.343018 
L 574.410876 518.761774 
L 577.332942 519.319636 
L 580.255007 520.024907 
L 583.177073 520.882203 
L 586.099138 521.892549 
L 589.021204 523.053558 
L 591.943269 524.359699 
L 594.865334 525.802629 
L 600.709465 529.053778 
L 606.553596 532.699486 
L 612.397727 536.614376 
L 632.852185 550.644201 
L 638.696316 554.325961 
L 644.540447 557.734817 
L 650.384578 560.834179 
L 656.228709 563.604671 
L 662.07284 566.041109 
L 667.91697 568.149569 
L 673.761101 569.944804 
L 679.605232 571.448044 
L 685.449363 572.685139 
L 691.293494 573.684929 
L 697.137625 574.477772 
L 702.981756 575.094202 
L 711.747952 575.752112 
L 720.514148 576.169334 
L 732.20241 576.478722 
L 740.968606 576.597197 
L 740.968606 576.597197 
" clip-path="url(#p117aab65e0)" style="fill: none; stroke: #00bfff; stroke-opacity: 0.2; stroke-width: 10; stroke-linecap: square"/>
   </g>
   <g id="line2d_2">
    <path d="M 159.477584 576.570912 
L 171.165846 576.341959 
L 179.932042 575.998811 
L 188.698238 575.402232 
L 194.542369 574.795749 
L 200.3865 573.960577 
L 206.230631 572.832247 
L 212.074762 571.336154 
L 214.996827 570.424348 
L 217.918893 569.388601 
L 220.840958 568.217368 
L 223.763024 566.898859 
L 226.685089 565.421166 
L 229.607155 563.772415 
L 232.52922 561.940939 
L 235.451285 559.915464 
L 238.373351 557.685322 
L 241.295416 555.240668 
L 244.217482 552.572716 
L 247.139547 549.673984 
L 250.061613 546.538539 
L 252.983678 543.162239 
L 255.905744 539.542965 
L 258.827809 535.680842 
L 261.749874 531.578424 
L 264.67194 527.240855 
L 267.594005 522.675982 
L 273.438136 512.909577 
L 279.282267 502.397086 
L 285.126398 491.297435 
L 293.892594 473.975109 
L 305.580856 450.768572 
L 311.424987 439.596906 
L 317.269118 428.950858 
L 323.113249 418.955616 
L 328.957379 409.684225 
L 334.80151 401.156644 
L 340.645641 393.345227 
L 346.489772 386.186068 
L 352.333903 379.594836 
L 358.178034 373.485284 
L 364.022165 367.788248 
L 369.866296 362.468984 
L 375.710427 357.540759 
L 381.554557 353.072947 
L 384.476623 351.049183 
L 387.398688 349.192295 
L 390.320754 347.526057 
L 393.242819 346.076621 
L 396.164885 344.87192 
L 399.08695 343.940976 
L 402.009015 343.313135 
L 404.931081 343.017245 
L 407.853146 343.080811 
L 410.775212 343.529141 
L 413.697277 344.384522 
L 416.619343 345.665452 
L 419.541408 347.385949 
L 422.463474 349.554972 
L 425.385539 352.175975 
L 428.307604 355.2466 
L 431.22967 358.75854 
L 434.151735 362.697558 
L 437.073801 367.043675 
L 439.995866 371.771509 
L 442.917932 376.850761 
L 445.839997 382.246813 
L 451.684128 393.833525 
L 457.528259 406.196363 
L 477.982717 450.539874 
L 483.826848 462.223958 
L 486.748913 467.743725 
L 489.670979 473.017512 
L 492.593044 478.025793 
L 495.51511 482.752038 
L 498.437175 487.182642 
L 501.35924 491.30687 
L 504.281306 495.116816 
L 507.203371 498.607388 
L 510.125437 501.776309 
L 513.047502 504.624146 
L 515.969568 507.154344 
L 518.891633 509.373264 
L 521.813699 511.290219 
L 524.735764 512.917476 
L 527.657829 514.270234 
L 530.579895 515.366544 
L 533.50196 516.227178 
L 536.424026 516.875426 
L 539.346091 517.336832 
L 542.268157 517.638842 
L 548.112287 517.881504 
L 556.878484 517.79614 
L 562.722615 517.783865 
L 568.566746 518.051383 
L 571.488811 518.343018 
L 574.410876 518.761774 
L 577.332942 519.319636 
L 580.255007 520.024907 
L 583.177073 520.882203 
L 586.099138 521.892549 
L 589.021204 523.053558 
L 591.943269 524.359699 
L 594.865334 525.802629 
L 600.709465 529.053778 
L 606.553596 532.699486 
L 612.397727 536.614376 
L 632.852185 550.644201 
L 638.696316 554.325961 
L 644.540447 557.734817 
L 650.384578 560.834179 
L 656.228709 563.604671 
L 662.07284 566.041109 
L 667.91697 568.149569 
L 673.761101 569.944804 
L 679.605232 571.448044 
L 685.449363 572.685139 
L 691.293494 573.684929 
L 697.137625 574.477772 
L 702.981756 575.094202 
L 711.747952 575.752112 
L 720.514148 576.169334 
L 732.20241 576.478722 
L 740.968606 576.597197 
L 740.968606 576.597197 
" clip-path="url(#p117aab65e0)" style="fill: none; stroke: #00bfff; stroke-opacity: 0.4; stroke-width: 5; stroke-linecap: square"/>
   </g>
   <g id="line2d_3">
    <path d="M 159.477584 576.570912 
L 171.165846 576.341959 
L 179.932042 575.998811 
L 188.698238 575.402232 
L 194.542369 574.795749 
L 200.3865 573.960577 
L 206.230631 572.832247 
L 212.074762 571.336154 
L 214.996827 570.424348 
L 217.918893 569.388601 
L 220.840958 568.217368 
L 223.763024 566.898859 
L 226.685089 565.421166 
L 229.607155 563.772415 
L 232.52922 561.940939 
L 235.451285 559.915464 
L 238.373351 557.685322 
L 241.295416 555.240668 
L 244.217482 552.572716 
L 247.139547 549.673984 
L 250.061613 546.538539 
L 252.983678 543.162239 
L 255.905744 539.542965 
L 258.827809 535.680842 
L 261.749874 531.578424 
L 264.67194 527.240855 
L 267.594005 522.675982 
L 273.438136 512.909577 
L 279.282267 502.397086 
L 285.126398 491.297435 
L 293.892594 473.975109 
L 305.580856 450.768572 
L 311.424987 439.596906 
L 317.269118 428.950858 
L 323.113249 418.955616 
L 328.957379 409.684225 
L 334.80151 401.156644 
L 340.645641 393.345227 
L 346.489772 386.186068 
L 352.333903 379.594836 
L 358.178034 373.485284 
L 364.022165 367.788248 
L 369.866296 362.468984 
L 375.710427 357.540759 
L 381.554557 353.072947 
L 384.476623 351.049183 
L 387.398688 349.192295 
L 390.320754 347.526057 
L 393.242819 346.076621 
L 396.164885 344.87192 
L 399.08695 343.940976 
L 402.009015 343.313135 
L 404.931081 343.017245 
L 407.853146 343.080811 
L 410.775212 343.529141 
L 413.697277 344.384522 
L 416.619343 345.665452 
L 419.541408 347.385949 
L 422.463474 349.554972 
L 425.385539 352.175975 
L 428.307604 355.2466 
L 431.22967 358.75854 
L 434.151735 362.697558 
L 437.073801 367.043675 
L 439.995866 371.771509 
L 442.917932 376.850761 
L 445.839997 382.246813 
L 451.684128 393.833525 
L 457.528259 406.196363 
L 477.982717 450.539874 
L 483.826848 462.223958 
L 486.748913 467.743725 
L 489.670979 473.017512 
L 492.593044 478.025793 
L 495.51511 482.752038 
L 498.437175 487.182642 
L 501.35924 491.30687 
L 504.281306 495.116816 
L 507.203371 498.607388 
L 510.125437 501.776309 
L 513.047502 504.624146 
L 515.969568 507.154344 
L 518.891633 509.373264 
L 521.813699 511.290219 
L 524.735764 512.917476 
L 527.657829 514.270234 
L 530.579895 515.366544 
L 533.50196 516.227178 
L 536.424026 516.875426 
L 539.346091 517.336832 
L 542.268157 517.638842 
L 548.112287 517.881504 
L 556.878484 517.79614 
L 562.722615 517.783865 
L 568.566746 518.051383 
L 571.488811 518.343018 
L 574.410876 518.761774 
L 577.332942 519.319636 
L 580.255007 520.024907 
L 583.177073 520.882203 
L 586.099138 521.892549 
L 589.021204 523.053558 
L 591.943269 524.359699 
L 594.865334 525.802629 
L 600.709465 529.053778 
L 606.553596 532.699486 
L 612.397727 536.614376 
L 632.852185 550.644201 
L 638.696316 554.325961 
L 644.540447 557.734817 
L 650.384578 560.834179 
L 656.228709 563.604671 
L 662.07284 566.041109 
L 667.91697 568.149569 
L 673.761101 569.944804 
L 679.605232 571.448044 
L 685.449363 572.685139 
L 691.293494 573.684929 
L 697.137625 574.477772 
L 702.981756 575.094202 
L 711.747952 575.752112 
L 720.514148 576.169334 
L 732.20241 576.478722 
L 740.968606 576.597197 
L 740.968606 576.597197 
" clip-path="url(#p117aab65e0)" style="fill: none; stroke: #00bfff; stroke-width: 2.5; stroke-linecap: square"/>
   </g>
   <g id="line2d_4">
    <path d="M 191.171175 576.631756 
L 201.096576 576.445208 
L 207.71351 576.180328 
L 214.330444 575.726119 
L 220.947377 575.000086 
L 227.564311 573.914994 
L 230.872778 573.212173 
L 234.181245 572.390456 
L 237.489712 571.441825 
L 240.798179 570.358606 
L 244.106646 569.132674 
L 247.415113 567.754313 
L 250.72358 566.210804 
L 254.032047 564.484861 
L 257.340514 562.553089 
L 260.648981 560.384656 
L 263.957448 557.940374 
L 267.265915 555.172363 
L 270.574382 552.024396 
L 273.882849 548.432979 
L 277.191316 544.329136 
L 280.499783 539.640788 
L 283.80825 534.295606 
L 287.116716 528.224165 
L 290.425183 521.363276 
L 293.73365 513.65937 
L 297.042117 505.071865 
L 300.350584 495.57646 
L 303.659051 485.168305 
L 306.967518 473.864968 
L 310.275985 461.709049 
L 313.584452 448.770257 
L 316.892919 435.146645 
L 323.509853 406.378148 
L 333.435254 362.059713 
L 336.743721 347.794083 
L 340.052188 334.137136 
L 343.360655 321.288588 
L 346.669122 309.426992 
L 349.977588 298.702153 
L 353.286055 289.229301 
L 356.594522 281.08552 
L 359.902989 274.308756 
L 363.211456 268.899482 
L 366.519923 264.824841 
L 369.82839 262.024858 
L 373.136857 260.420098 
L 376.445324 259.92 
L 379.753791 260.43106 
L 383.062258 261.864012 
L 386.370725 264.139314 
L 389.679192 267.190392 
L 392.987659 270.964389 
L 396.296126 275.420465 
L 399.604593 280.525994 
L 402.91306 286.251314 
L 406.221527 292.563872 
L 409.529994 299.422706 
L 412.838461 306.774196 
L 416.146927 314.549833 
L 422.763861 331.029334 
L 435.997729 364.968078 
L 442.614663 381.144334 
L 449.231597 396.471706 
L 455.848531 411.157045 
L 482.316266 468.837495 
L 488.9332 482.445818 
L 492.241667 488.824603 
L 495.550134 494.841229 
L 498.858601 500.449783 
L 502.167068 505.617553 
L 505.475535 510.325992 
L 508.784002 514.570769 
L 512.092469 518.36114 
L 515.400936 521.718877 
L 518.709403 524.676885 
L 522.01787 527.277569 
L 525.326337 529.570952 
L 528.634804 531.612498 
L 531.943271 533.460628 
L 538.560205 536.808283 
L 548.485605 541.693951 
L 555.102539 545.210651 
L 565.02794 550.872102 
L 571.644874 554.601432 
L 574.953341 556.344554 
L 578.261808 557.960216 
L 581.570275 559.420516 
L 584.878742 560.705872 
L 588.187209 561.806501 
L 591.495676 562.723043 
L 594.804143 563.466335 
L 598.11261 564.056362 
L 604.729544 564.891299 
L 621.271878 566.511863 
L 627.888812 567.500553 
L 634.505746 568.765329 
L 657.665015 573.6856 
L 664.281949 574.715474 
L 670.898883 575.477584 
L 677.515816 575.996401 
L 684.13275 576.320091 
L 694.058151 576.550301 
L 703.983552 576.577743 
L 713.908953 576.432429 
L 723.834354 576.062491 
L 733.759755 575.390822 
L 743.685155 574.412321 
L 760.22749 572.619549 
L 766.844424 572.146607 
L 773.461358 571.959333 
L 780.078292 572.094921 
L 786.695226 572.526346 
L 796.620627 573.538777 
L 809.854494 574.991483 
L 819.779895 575.807378 
L 829.705296 576.307467 
L 839.630697 576.560348 
L 849.556098 576.667102 
L 849.556098 576.667102 
" clip-path="url(#p117aab65e0)" style="fill: none; stroke: #ff4d4d; stroke-opacity: 0.2; stroke-width: 10; stroke-linecap: square"/>
   </g>
   <g id="line2d_5">
    <path d="M 191.171175 576.631756 
L 201.096576 576.445208 
L 207.71351 576.180328 
L 214.330444 575.726119 
L 220.947377 575.000086 
L 227.564311 573.914994 
L 230.872778 573.212173 
L 234.181245 572.390456 
L 237.489712 571.441825 
L 240.798179 570.358606 
L 244.106646 569.132674 
L 247.415113 567.754313 
L 250.72358 566.210804 
L 254.032047 564.484861 
L 257.340514 562.553089 
L 260.648981 560.384656 
L 263.957448 557.940374 
L 267.265915 555.172363 
L 270.574382 552.024396 
L 273.882849 548.432979 
L 277.191316 544.329136 
L 280.499783 539.640788 
L 283.80825 534.295606 
L 287.116716 528.224165 
L 290.425183 521.363276 
L 293.73365 513.65937 
L 297.042117 505.071865 
L 300.350584 495.57646 
L 303.659051 485.168305 
L 306.967518 473.864968 
L 310.275985 461.709049 
L 313.584452 448.770257 
L 316.892919 435.146645 
L 323.509853 406.378148 
L 333.435254 362.059713 
L 336.743721 347.794083 
L 340.052188 334.137136 
L 343.360655 321.288588 
L 346.669122 309.426992 
L 349.977588 298.702153 
L 353.286055 289.229301 
L 356.594522 281.08552 
L 359.902989 274.308756 
L 363.211456 268.899482 
L 366.519923 264.824841 
L 369.82839 262.024858 
L 373.136857 260.420098 
L 376.445324 259.92 
L 379.753791 260.43106 
L 383.062258 261.864012 
L 386.370725 264.139314 
L 389.679192 267.190392 
L 392.987659 270.964389 
L 396.296126 275.420465 
L 399.604593 280.525994 
L 402.91306 286.251314 
L 406.221527 292.563872 
L 409.529994 299.422706 
L 412.838461 306.774196 
L 416.146927 314.549833 
L 422.763861 331.029334 
L 435.997729 364.968078 
L 442.614663 381.144334 
L 449.231597 396.471706 
L 455.848531 411.157045 
L 482.316266 468.837495 
L 488.9332 482.445818 
L 492.241667 488.824603 
L 495.550134 494.841229 
L 498.858601 500.449783 
L 502.167068 505.617553 
L 505.475535 510.325992 
L 508.784002 514.570769 
L 512.092469 518.36114 
L 515.400936 521.718877 
L 518.709403 524.676885 
L 522.01787 527.277569 
L 525.326337 529.570952 
L 528.634804 531.612498 
L 531.943271 533.460628 
L 538.560205 536.808283 
L 548.485605 541.693951 
L 555.102539 545.210651 
L 565.02794 550.872102 
L 571.644874 554.601432 
L 574.953341 556.344554 
L 578.261808 557.960216 
L 581.570275 559.420516 
L 584.878742 560.705872 
L 588.187209 561.806501 
L 591.495676 562.723043 
L 594.804143 563.466335 
L 598.11261 564.056362 
L 604.729544 564.891299 
L 621.271878 566.511863 
L 627.888812 567.500553 
L 634.505746 568.765329 
L 657.665015 573.6856 
L 664.281949 574.715474 
L 670.898883 575.477584 
L 677.515816 575.996401 
L 684.13275 576.320091 
L 694.058151 576.550301 
L 703.983552 576.577743 
L 713.908953 576.432429 
L 723.834354 576.062491 
L 733.759755 575.390822 
L 743.685155 574.412321 
L 760.22749 572.619549 
L 766.844424 572.146607 
L 773.461358 571.959333 
L 780.078292 572.094921 
L 786.695226 572.526346 
L 796.620627 573.538777 
L 809.854494 574.991483 
L 819.779895 575.807378 
L 829.705296 576.307467 
L 839.630697 576.560348 
L 849.556098 576.667102 
L 849.556098 576.667102 
" clip-path="url(#p117aab65e0)" style="fill: none; stroke: #ff4d4d; stroke-opacity: 0.4; stroke-width: 5; stroke-linecap: square"/>
   </g>
   <g id="line2d_6">
    <path d="M 191.171175 576.631756 
L 201.096576 576.445208 
L 207.71351 576.180328 
L 214.330444 575.726119 
L 220.947377 575.000086 
L 227.564311 573.914994 
L 230.872778 573.212173 
L 234.181245 572.390456 
L 237.489712 571.441825 
L 240.798179 570.358606 
L 244.106646 569.132674 
L 247.415113 567.754313 
L 250.72358 566.210804 
L 254.032047 564.484861 
L 257.340514 562.553089 
L 260.648981 560.384656 
L 263.957448 557.940374 
L 267.265915 555.172363 
L 270.574382 552.024396 
L 273.882849 548.432979 
L 277.191316 544.329136 
L 280.499783 539.640788 
L 283.80825 534.295606 
L 287.116716 528.224165 
L 290.425183 521.363276 
L 293.73365 513.65937 
L 297.042117 505.071865 
L 300.350584 495.57646 
L 303.659051 485.168305 
L 306.967518 473.864968 
L 310.275985 461.709049 
L 313.584452 448.770257 
L 316.892919 435.146645 
L 323.509853 406.378148 
L 333.435254 362.059713 
L 336.743721 347.794083 
L 340.052188 334.137136 
L 343.360655 321.288588 
L 346.669122 309.426992 
L 349.977588 298.702153 
L 353.286055 289.229301 
L 356.594522 281.08552 
L 359.902989 274.308756 
L 363.211456 268.899482 
L 366.519923 264.824841 
L 369.82839 262.024858 
L 373.136857 260.420098 
L 376.445324 259.92 
L 379.753791 260.43106 
L 383.062258 261.864012 
L 386.370725 264.139314 
L 389.679192 267.190392 
L 392.987659 270.964389 
L 396.296126 275.420465 
L 399.604593 280.525994 
L 402.91306 286.251314 
L 406.221527 292.563872 
L 409.529994 299.422706 
L 412.838461 306.774196 
L 416.146927 314.549833 
L 422.763861 331.029334 
L 435.997729 364.968078 
L 442.614663 381.144334 
L 449.231597 396.471706 
L 455.848531 411.157045 
L 482.316266 468.837495 
L 488.9332 482.445818 
L 492.241667 488.824603 
L 495.550134 494.841229 
L 498.858601 500.449783 
L 502.167068 505.617553 
L 505.475535 510.325992 
L 508.784002 514.570769 
L 512.092469 518.36114 
L 515.400936 521.718877 
L 518.709403 524.676885 
L 522.01787 527.277569 
L 525.326337 529.570952 
L 528.634804 531.612498 
L 531.943271 533.460628 
L 538.560205 536.808283 
L 548.485605 541.693951 
L 555.102539 545.210651 
L 565.02794 550.872102 
L 571.644874 554.601432 
L 574.953341 556.344554 
L 578.261808 557.960216 
L 581.570275 559.420516 
L 584.878742 560.705872 
L 588.187209 561.806501 
L 591.495676 562.723043 
L 594.804143 563.466335 
L 598.11261 564.056362 
L 604.729544 564.891299 
L 621.271878 566.511863 
L 627.888812 567.500553 
L 634.505746 568.765329 
L 657.665015 573.6856 
L 664.281949 574.715474 
L 670.898883 575.477584 
L 677.515816 575.996401 
L 684.13275 576.320091 
L 694.058151 576.550301 
L 703.983552 576.577743 
L 713.908953 576.432429 
L 723.834354 576.062491 
L 733.759755 575.390822 
L 743.685155 574.412321 
L 760.22749 572.619549 
L 766.844424 572.146607 
L 773.461358 571.959333 
L 780.078292 572.094921 
L 786.695226 572.526346 
L 796.620627 573.538777 
L 809.854494 574.991483 
L 819.779895 575.807378 
L 829.705296 576.307467 
L 839.630697 576.560348 
L 849.556098 576.667102 
L 849.556098 576.667102 
" clip-path="url(#p117aab65e0)" style="fill: none; stroke: #ff4d4d; stroke-width: 2.5; stroke-linecap: square"/>
   </g>
   <g id="patch_3">
    <path d="M 216 576.72 
L 824.727273 576.72 
" style="fill: none; stroke: #1c2128; stroke-width: 0.8; stroke-linejoin: miter; stroke-linecap: square"/>
   </g>
   <g id="text_1">
    <text style="font-size: 40px; font-family: 'DejaVu Sans', 'Bitstream Vera Sans', 'Computer Modern Sans Serif', 'Lucida Grande', 'Verdana', 'Geneva', 'Lucid', 'Arial', 'Helvetica', 'Avant Garde', sans-serif; text-anchor: middle; fill: #ffffff" x="520.363636" y="47.76" transform="rotate(-0 520.363636 47.76)">Stable Disease States</text>
   </g>
   <g id="legend_1">
    <g id="line2d_7">
     <path d="M 549.180085 111.815938 
L 575.180085 111.815938 
L 601.180085 111.815938 
" style="fill: none; stroke: #00bfff; stroke-width: 2.5; stroke-linecap: square"/>
    </g>
    <g id="text_2">
     <text style="font-size: 26px; font-family: 'DejaVu Sans', 'Bitstream Vera Sans', 'Computer Modern Sans Serif', 'Lucida Grande', 'Verdana', 'Geneva', 'Lucid', 'Arial', 'Helvetica', 'Avant Garde', sans-serif; text-anchor: start; fill: #ffffff" x="621.980085" y="120.915938" transform="rotate(-0 621.980085 120.915938)">Healthy</text>
    </g>
    <g id="line2d_8">
     <path d="M 549.180085 149.979063 
L 575.180085 149.979063 
L 601.180085 149.979063 
" style="fill: none; stroke: #ff4d4d; stroke-width: 2.5; stroke-linecap: square"/>
    </g>
    <g id="text_3">
     <text style="font-size: 26px; font-family: 'DejaVu Sans', 'Bitstream Vera Sans', 'Computer Modern Sans Serif', 'Lucida Grande', 'Verdana', 'Geneva', 'Lucid', 'Arial', 'Helvetica', 'Avant Garde', sans-serif; text-anchor: start; fill: #ffffff" x="621.980085" y="159.079063" transform="rotate(-0 621.980085 159.079063)">Disease State</text>
    </g>
   </g>
  </g>
  <g id="axes_2">
   <g id="patch_4">
    <path d="M 946.472727 576.72 
L 1555.2 576.72 
L 1555.2 77.76 
L 946.472727 77.76 
z
" style="fill: #0d1117"/>
   </g>
   <g id="FillBetweenPolyCollection_3">
    <defs>
     <path id="me5283ccc71" d="M 902.725556 -71.71007 
L 902.725556 -71.28 
L 905.66629 -71.28 
L 908.607025 -71.28 
L 911.547759 -71.28 
L 914.488494 -71.28 
L 917.429228 -71.28 
L 920.369963 -71.28 
L 923.310697 -71.28 
L 926.251432 -71.28 
L 929.192166 -71.28 
L 932.1329 -71.28 
L 935.073635 -71.28 
L 938.014369 -71.28 
L 940.955104 -71.28 
L 943.895838 -71.28 
L 946.836573 -71.28 
L 949.777307 -71.28 
L 952.718042 -71.28 
L 955.658776 -71.28 
L 958.599511 -71.28 
L 961.540245 -71.28 
L 964.48098 -71.28 
L 967.421714 -71.28 
L 970.362449 -71.28 
L 973.303183 -71.28 
L 976.243917 -71.28 
L 979.184652 -71.28 
L 982.125386 -71.28 
L 985.066121 -71.28 
L 988.006855 -71.28 
L 990.94759 -71.28 
L 993.888324 -71.28 
L 996.829059 -71.28 
L 999.769793 -71.28 
L 1002.710528 -71.28 
L 1005.651262 -71.28 
L 1008.591997 -71.28 
L 1011.532731 -71.28 
L 1014.473466 -71.28 
L 1017.4142 -71.28 
L 1020.354934 -71.28 
L 1023.295669 -71.28 
L 1026.236403 -71.28 
L 1029.177138 -71.28 
L 1032.117872 -71.28 
L 1035.058607 -71.28 
L 1037.999341 -71.28 
L 1040.940076 -71.28 
L 1043.88081 -71.28 
L 1046.821545 -71.28 
L 1049.762279 -71.28 
L 1052.703014 -71.28 
L 1055.643748 -71.28 
L 1058.584483 -71.28 
L 1061.525217 -71.28 
L 1064.465951 -71.28 
L 1067.406686 -71.28 
L 1070.34742 -71.28 
L 1073.288155 -71.28 
L 1076.228889 -71.28 
L 1079.169624 -71.28 
L 1082.110358 -71.28 
L 1085.051093 -71.28 
L 1087.991827 -71.28 
L 1090.932562 -71.28 
L 1093.873296 -71.28 
L 1096.814031 -71.28 
L 1099.754765 -71.28 
L 1102.6955 -71.28 
L 1105.636234 -71.28 
L 1108.576968 -71.28 
L 1111.517703 -71.28 
L 1114.458437 -71.28 
L 1117.399172 -71.28 
L 1120.339906 -71.28 
L 1123.280641 -71.28 
L 1126.221375 -71.28 
L 1129.16211 -71.28 
L 1132.102844 -71.28 
L 1135.043579 -71.28 
L 1137.984313 -71.28 
L 1140.925048 -71.28 
L 1143.865782 -71.28 
L 1146.806517 -71.28 
L 1149.747251 -71.28 
L 1152.687985 -71.28 
L 1155.62872 -71.28 
L 1158.569454 -71.28 
L 1161.510189 -71.28 
L 1164.450923 -71.28 
L 1167.391658 -71.28 
L 1170.332392 -71.28 
L 1173.273127 -71.28 
L 1176.213861 -71.28 
L 1179.154596 -71.28 
L 1182.09533 -71.28 
L 1185.036065 -71.28 
L 1187.976799 -71.28 
L 1190.917534 -71.28 
L 1193.858268 -71.28 
L 1196.799002 -71.28 
L 1199.739737 -71.28 
L 1202.680471 -71.28 
L 1205.621206 -71.28 
L 1208.56194 -71.28 
L 1211.502675 -71.28 
L 1214.443409 -71.28 
L 1217.384144 -71.28 
L 1220.324878 -71.28 
L 1223.265613 -71.28 
L 1226.206347 -71.28 
L 1229.147082 -71.28 
L 1232.087816 -71.28 
L 1235.028551 -71.28 
L 1237.969285 -71.28 
L 1240.910019 -71.28 
L 1243.850754 -71.28 
L 1246.791488 -71.28 
L 1249.732223 -71.28 
L 1252.672957 -71.28 
L 1255.613692 -71.28 
L 1258.554426 -71.28 
L 1261.495161 -71.28 
L 1264.435895 -71.28 
L 1267.37663 -71.28 
L 1270.317364 -71.28 
L 1273.258099 -71.28 
L 1276.198833 -71.28 
L 1279.139568 -71.28 
L 1282.080302 -71.28 
L 1285.021036 -71.28 
L 1287.961771 -71.28 
L 1290.902505 -71.28 
L 1293.84324 -71.28 
L 1296.783974 -71.28 
L 1299.724709 -71.28 
L 1302.665443 -71.28 
L 1305.606178 -71.28 
L 1308.546912 -71.28 
L 1311.487647 -71.28 
L 1314.428381 -71.28 
L 1317.369116 -71.28 
L 1320.30985 -71.28 
L 1323.250585 -71.28 
L 1326.191319 -71.28 
L 1329.132053 -71.28 
L 1332.072788 -71.28 
L 1335.013522 -71.28 
L 1337.954257 -71.28 
L 1340.894991 -71.28 
L 1343.835726 -71.28 
L 1346.77646 -71.28 
L 1349.717195 -71.28 
L 1352.657929 -71.28 
L 1355.598664 -71.28 
L 1358.539398 -71.28 
L 1361.480133 -71.28 
L 1364.420867 -71.28 
L 1367.361602 -71.28 
L 1370.302336 -71.28 
L 1373.24307 -71.28 
L 1376.183805 -71.28 
L 1379.124539 -71.28 
L 1382.065274 -71.28 
L 1385.006008 -71.28 
L 1387.946743 -71.28 
L 1390.887477 -71.28 
L 1393.828212 -71.28 
L 1396.768946 -71.28 
L 1399.709681 -71.28 
L 1402.650415 -71.28 
L 1405.59115 -71.28 
L 1408.531884 -71.28 
L 1411.472619 -71.28 
L 1414.413353 -71.28 
L 1417.354087 -71.28 
L 1420.294822 -71.28 
L 1423.235556 -71.28 
L 1426.176291 -71.28 
L 1429.117025 -71.28 
L 1432.05776 -71.28 
L 1434.998494 -71.28 
L 1437.939229 -71.28 
L 1440.879963 -71.28 
L 1443.820698 -71.28 
L 1446.761432 -71.28 
L 1449.702167 -71.28 
L 1452.642901 -71.28 
L 1455.583636 -71.28 
L 1458.52437 -71.28 
L 1461.465104 -71.28 
L 1464.405839 -71.28 
L 1467.346573 -71.28 
L 1470.287308 -71.28 
L 1473.228042 -71.28 
L 1476.168777 -71.28 
L 1479.109511 -71.28 
L 1482.050246 -71.28 
L 1484.99098 -71.28 
L 1487.931715 -71.28 
L 1487.931715 -71.386598 
L 1487.931715 -71.386598 
L 1484.99098 -71.419214 
L 1482.050246 -71.460791 
L 1479.109511 -71.513478 
L 1476.168777 -71.579853 
L 1473.228042 -71.662984 
L 1470.287308 -71.766498 
L 1467.346573 -71.894649 
L 1464.405839 -72.052393 
L 1461.465104 -72.245456 
L 1458.52437 -72.480404 
L 1455.583636 -72.764714 
L 1452.642901 -73.106822 
L 1449.702167 -73.516175 
L 1446.761432 -74.003261 
L 1443.820698 -74.579619 
L 1440.879963 -75.257827 
L 1437.939229 -76.051465 
L 1434.998494 -76.975034 
L 1432.05776 -78.043848 
L 1429.117025 -79.273879 
L 1426.176291 -80.681551 
L 1423.235556 -82.283493 
L 1420.294822 -84.096234 
L 1417.354087 -86.135842 
L 1414.413353 -88.417521 
L 1411.472619 -90.95515 
L 1408.531884 -93.760783 
L 1405.59115 -96.844111 
L 1402.650415 -100.2119 
L 1399.709681 -103.867414 
L 1396.768946 -107.80985 
L 1393.828212 -112.033791 
L 1390.887477 -116.528703 
L 1387.946743 -121.278506 
L 1385.006008 -126.261232 
L 1382.065274 -131.448805 
L 1379.124539 -136.806958 
L 1376.183805 -142.295311 
L 1373.24307 -147.867628 
L 1370.302336 -153.472272 
L 1367.361602 -159.052851 
L 1364.420867 -164.549068 
L 1361.480133 -169.897764 
L 1358.539398 -175.03414 
L 1355.598664 -179.893123 
L 1352.657929 -184.410865 
L 1349.717195 -188.526315 
L 1346.77646 -192.182841 
L 1343.835726 -195.329826 
L 1340.894991 -197.924215 
L 1337.954257 -199.931945 
L 1335.013522 -201.329202 
L 1332.072788 -202.103486 
L 1329.132053 -202.25441 
L 1326.191319 -201.794229 
L 1323.250585 -200.748061 
L 1320.30985 -199.15379 
L 1317.369116 -197.06166 
L 1314.428381 -194.533543 
L 1311.487647 -191.641927 
L 1308.546912 -188.468634 
L 1305.606178 -185.103298 
L 1302.665443 -181.641651 
L 1299.724709 -178.183662 
L 1296.783974 -174.831549 
L 1293.84324 -171.687743 
L 1290.902505 -168.852816 
L 1287.961771 -166.42343 
L 1285.021036 -164.490342 
L 1282.080302 -163.136497 
L 1279.139568 -162.435244 
L 1276.198833 -162.448699 
L 1273.258099 -163.226288 
L 1270.317364 -164.803488 
L 1267.37663 -167.200794 
L 1264.435895 -170.422928 
L 1261.495161 -174.458316 
L 1258.554426 -179.278852 
L 1255.613692 -184.839958 
L 1252.672957 -191.080968 
L 1249.732223 -197.92583 
L 1246.791488 -205.284151 
L 1243.850754 -213.052564 
L 1240.910019 -221.116421 
L 1237.969285 -229.35179 
L 1235.028551 -237.627725 
L 1232.087816 -245.808774 
L 1229.147082 -253.757679 
L 1226.206347 -261.338201 
L 1223.265613 -268.418013 
L 1220.324878 -274.871582 
L 1217.384144 -280.582969 
L 1214.443409 -285.448464 
L 1211.502675 -289.378984 
L 1208.56194 -292.302161 
L 1205.621206 -294.164056 
L 1202.680471 -294.930454 
L 1199.739737 -294.587685 
L 1196.799002 -293.142969 
L 1193.858268 -290.624252 
L 1190.917534 -287.079563 
L 1187.976799 -282.575902 
L 1185.036065 -277.197703 
L 1182.09533 -271.044924 
L 1179.154596 -264.230829 
L 1176.213861 -256.879521 
L 1173.273127 -249.123323 
L 1170.332392 -241.100065 
L 1167.391658 -232.950359 
L 1164.450923 -224.81494 
L 1161.510189 -216.832127 
L 1158.569454 -209.135467 
L 1155.62872 -201.85161 
L 1152.687985 -195.098432 
L 1149.747251 -188.983457 
L 1146.806517 -183.602553 
L 1143.865782 -179.038938 
L 1140.925048 -175.362458 
L 1137.984313 -172.629129 
L 1135.043579 -170.880933 
L 1132.102844 -170.145808 
L 1129.16211 -170.437838 
L 1126.221375 -171.757582 
L 1123.280641 -174.092529 
L 1120.339906 -177.417644 
L 1117.399172 -181.695985 
L 1114.458437 -186.879366 
L 1111.517703 -192.909054 
L 1108.576968 -199.716496 
L 1105.636234 -207.224056 
L 1102.6955 -215.345785 
L 1099.754765 -223.9882 
L 1096.814031 -233.051112 
L 1093.873296 -242.428481 
L 1090.932562 -252.009339 
L 1087.991827 -261.678773 
L 1085.051093 -271.318985 
L 1082.110358 -280.81044 
L 1079.169624 -290.033116 
L 1076.228889 -298.86783 
L 1073.288155 -307.197674 
L 1070.34742 -314.909517 
L 1067.406686 -321.895577 
L 1064.465951 -328.05503 
L 1061.525217 -333.295629 
L 1058.584483 -337.535294 
L 1055.643748 -340.703635 
L 1052.703014 -342.743351 
L 1049.762279 -343.611477 
L 1046.821545 -343.280409 
L 1043.88081 -341.738682 
L 1040.940076 -338.99144 
L 1037.999341 -335.060582 
L 1035.058607 -329.984555 
L 1032.117872 -323.817773 
L 1029.177138 -316.629672 
L 1026.236403 -308.503409 
L 1023.295669 -299.534238 
L 1020.354934 -289.827592 
L 1017.4142 -279.496934 
L 1014.473466 -268.661433 
L 1011.532731 -257.443535 
L 1008.591997 -245.966501 
L 1005.651262 -234.351988 
L 1002.710528 -222.717744 
L 999.769793 -211.17549 
L 996.829059 -199.829029 
L 993.888324 -188.77266 
L 990.94759 -178.089903 
L 988.006855 -167.852576 
L 985.066121 -158.120229 
L 982.125386 -148.939923 
L 979.184652 -140.346342 
L 976.243917 -132.362214 
L 973.303183 -124.998992 
L 970.362449 -118.257758 
L 967.421714 -112.1303 
L 964.48098 -106.60031 
L 961.540245 -101.644659 
L 958.599511 -97.23469 
L 955.658776 -93.337498 
L 952.718042 -89.917152 
L 949.777307 -86.935832 
L 946.836573 -84.354858 
L 943.895838 -82.135587 
L 940.955104 -80.240184 
L 938.014369 -78.632245 
L 935.073635 -77.277289 
L 932.1329 -76.143119 
L 929.192166 -75.200061 
L 926.251432 -74.421105 
L 923.310697 -73.781944 
L 920.369963 -73.260945 
L 917.429228 -72.839055 
L 914.488494 -72.499661 
L 911.547759 -72.228419 
L 908.607025 -72.013062 
L 905.66629 -71.84319 
L 902.725556 -71.71007 
z
"/>
    </defs>
    <g clip-path="url(#p41413d38fe)">
     <use xlink:href="#me5283ccc71" x="0" y="648" style="fill: #00bfff; fill-opacity: 0.1"/>
    </g>
   </g>
   <g id="FillBetweenPolyCollection_4">
    <defs>
     <path id="m3287d8754f" d="M 921.104513 -71.357758 
L 921.104513 -71.28 
L 924.418401 -71.28 
L 927.732289 -71.28 
L 931.046177 -71.28 
L 934.360065 -71.28 
L 937.673953 -71.28 
L 940.987841 -71.28 
L 944.301728 -71.28 
L 947.615616 -71.28 
L 950.929504 -71.28 
L 954.243392 -71.28 
L 957.55728 -71.28 
L 960.871168 -71.28 
L 964.185056 -71.28 
L 967.498944 -71.28 
L 970.812832 -71.28 
L 974.12672 -71.28 
L 977.440608 -71.28 
L 980.754496 -71.28 
L 984.068384 -71.28 
L 987.382272 -71.28 
L 990.69616 -71.28 
L 994.010048 -71.28 
L 997.323936 -71.28 
L 1000.637824 -71.28 
L 1003.951712 -71.28 
L 1007.265599 -71.28 
L 1010.579487 -71.28 
L 1013.893375 -71.28 
L 1017.207263 -71.28 
L 1020.521151 -71.28 
L 1023.835039 -71.28 
L 1027.148927 -71.28 
L 1030.462815 -71.28 
L 1033.776703 -71.28 
L 1037.090591 -71.28 
L 1040.404479 -71.28 
L 1043.718367 -71.28 
L 1047.032255 -71.28 
L 1050.346143 -71.28 
L 1053.660031 -71.28 
L 1056.973919 -71.28 
L 1060.287807 -71.28 
L 1063.601695 -71.28 
L 1066.915583 -71.28 
L 1070.22947 -71.28 
L 1073.543358 -71.28 
L 1076.857246 -71.28 
L 1080.171134 -71.28 
L 1083.485022 -71.28 
L 1086.79891 -71.28 
L 1090.112798 -71.28 
L 1093.426686 -71.28 
L 1096.740574 -71.28 
L 1100.054462 -71.28 
L 1103.36835 -71.28 
L 1106.682238 -71.28 
L 1109.996126 -71.28 
L 1113.310014 -71.28 
L 1116.623902 -71.28 
L 1119.93779 -71.28 
L 1123.251678 -71.28 
L 1126.565566 -71.28 
L 1129.879454 -71.28 
L 1133.193341 -71.28 
L 1136.507229 -71.28 
L 1139.821117 -71.28 
L 1143.135005 -71.28 
L 1146.448893 -71.28 
L 1149.762781 -71.28 
L 1153.076669 -71.28 
L 1156.390557 -71.28 
L 1159.704445 -71.28 
L 1163.018333 -71.28 
L 1166.332221 -71.28 
L 1169.646109 -71.28 
L 1172.959997 -71.28 
L 1176.273885 -71.28 
L 1179.587773 -71.28 
L 1182.901661 -71.28 
L 1186.215549 -71.28 
L 1189.529437 -71.28 
L 1192.843325 -71.28 
L 1196.157213 -71.28 
L 1199.4711 -71.28 
L 1202.784988 -71.28 
L 1206.098876 -71.28 
L 1209.412764 -71.28 
L 1212.726652 -71.28 
L 1216.04054 -71.28 
L 1219.354428 -71.28 
L 1222.668316 -71.28 
L 1225.982204 -71.28 
L 1229.296092 -71.28 
L 1232.60998 -71.28 
L 1235.923868 -71.28 
L 1239.237756 -71.28 
L 1242.551644 -71.28 
L 1245.865532 -71.28 
L 1249.17942 -71.28 
L 1252.493308 -71.28 
L 1255.807196 -71.28 
L 1259.121084 -71.28 
L 1262.434971 -71.28 
L 1265.748859 -71.28 
L 1269.062747 -71.28 
L 1272.376635 -71.28 
L 1275.690523 -71.28 
L 1279.004411 -71.28 
L 1282.318299 -71.28 
L 1285.632187 -71.28 
L 1288.946075 -71.28 
L 1292.259963 -71.28 
L 1295.573851 -71.28 
L 1298.887739 -71.28 
L 1302.201627 -71.28 
L 1305.515515 -71.28 
L 1308.829403 -71.28 
L 1312.143291 -71.28 
L 1315.457179 -71.28 
L 1318.771067 -71.28 
L 1322.084955 -71.28 
L 1325.398842 -71.28 
L 1328.71273 -71.28 
L 1332.026618 -71.28 
L 1335.340506 -71.28 
L 1338.654394 -71.28 
L 1341.968282 -71.28 
L 1345.28217 -71.28 
L 1348.596058 -71.28 
L 1351.909946 -71.28 
L 1355.223834 -71.28 
L 1358.537722 -71.28 
L 1361.85161 -71.28 
L 1365.165498 -71.28 
L 1368.479386 -71.28 
L 1371.793274 -71.28 
L 1375.107162 -71.28 
L 1378.42105 -71.28 
L 1381.734938 -71.28 
L 1385.048826 -71.28 
L 1388.362713 -71.28 
L 1391.676601 -71.28 
L 1394.990489 -71.28 
L 1398.304377 -71.28 
L 1401.618265 -71.28 
L 1404.932153 -71.28 
L 1408.246041 -71.28 
L 1411.559929 -71.28 
L 1414.873817 -71.28 
L 1418.187705 -71.28 
L 1421.501593 -71.28 
L 1424.815481 -71.28 
L 1428.129369 -71.28 
L 1431.443257 -71.28 
L 1434.757145 -71.28 
L 1438.071033 -71.28 
L 1441.384921 -71.28 
L 1444.698809 -71.28 
L 1448.012697 -71.28 
L 1451.326584 -71.28 
L 1454.640472 -71.28 
L 1457.95436 -71.28 
L 1461.268248 -71.28 
L 1464.582136 -71.28 
L 1467.896024 -71.28 
L 1471.209912 -71.28 
L 1474.5238 -71.28 
L 1477.837688 -71.28 
L 1481.151576 -71.28 
L 1484.465464 -71.28 
L 1487.779352 -71.28 
L 1491.09324 -71.28 
L 1494.407128 -71.28 
L 1497.721016 -71.28 
L 1501.034904 -71.28 
L 1504.348792 -71.28 
L 1507.66268 -71.28 
L 1510.976568 -71.28 
L 1514.290455 -71.28 
L 1517.604343 -71.28 
L 1520.918231 -71.28 
L 1524.232119 -71.28 
L 1527.546007 -71.28 
L 1530.859895 -71.28 
L 1534.173783 -71.28 
L 1537.487671 -71.28 
L 1540.801559 -71.28 
L 1544.115447 -71.28 
L 1547.429335 -71.28 
L 1550.743223 -71.28 
L 1554.057111 -71.28 
L 1557.370999 -71.28 
L 1560.684887 -71.28 
L 1563.998775 -71.28 
L 1567.312663 -71.28 
L 1570.626551 -71.28 
L 1573.940439 -71.28 
L 1577.254326 -71.28 
L 1580.568214 -71.28 
L 1580.568214 -71.285173 
L 1580.568214 -71.285173 
L 1577.254326 -71.28759 
L 1573.940439 -71.290948 
L 1570.626551 -71.295525 
L 1567.312663 -71.301642 
L 1563.998775 -71.309659 
L 1560.684887 -71.319958 
L 1557.370999 -71.332923 
L 1554.057111 -71.348907 
L 1550.743223 -71.368202 
L 1547.429335 -71.390989 
L 1544.115447 -71.417301 
L 1540.801559 -71.446977 
L 1537.487671 -71.479634 
L 1534.173783 -71.514644 
L 1530.859895 -71.551137 
L 1527.546007 -71.588021 
L 1524.232119 -71.624032 
L 1520.918231 -71.657802 
L 1517.604343 -71.687954 
L 1514.290455 -71.713202 
L 1510.976568 -71.732464 
L 1507.66268 -71.744965 
L 1504.348792 -71.750326 
L 1501.034904 -71.748636 
L 1497.721016 -71.740494 
L 1494.407128 -71.727027 
L 1491.09324 -71.709881 
L 1487.779352 -71.6912 
L 1484.465464 -71.673593 
L 1481.151576 -71.660104 
L 1477.837688 -71.654189 
L 1474.5238 -71.659724 
L 1471.209912 -71.681023 
L 1467.896024 -71.722893 
L 1464.582136 -71.790714 
L 1461.268248 -71.890537 
L 1457.95436 -72.029204 
L 1454.640472 -72.21449 
L 1451.326584 -72.455249 
L 1448.012697 -72.76159 
L 1444.698809 -73.145071 
L 1441.384921 -73.618932 
L 1438.071033 -74.198379 
L 1434.757145 -74.900924 
L 1431.443257 -75.746799 
L 1428.129369 -76.759428 
L 1424.815481 -77.965951 
L 1421.501593 -79.397756 
L 1418.187705 -81.090966 
L 1414.873817 -83.086788 
L 1411.559929 -85.431645 
L 1408.246041 -88.176955 
L 1404.932153 -91.378465 
L 1401.618265 -95.095027 
L 1398.304377 -99.386742 
L 1394.990489 -104.312451 
L 1391.676601 -109.926588 
L 1388.362713 -116.275491 
L 1385.048826 -123.393334 
L 1381.734938 -131.29791 
L 1378.42105 -139.986537 
L 1375.107162 -149.432407 
L 1371.793274 -159.581696 
L 1368.479386 -170.351739 
L 1365.165498 -181.630488 
L 1361.85161 -193.277441 
L 1358.537722 -205.12606 
L 1355.223834 -216.987653 
L 1351.909946 -228.656524 
L 1348.596058 -239.916154 
L 1345.28217 -250.546068 
L 1341.968282 -260.329046 
L 1338.654394 -269.058319 
L 1335.340506 -276.544412 
L 1332.026618 -282.621401 
L 1328.71273 -287.152348 
L 1325.398842 -290.033815 
L 1322.084955 -291.199355 
L 1318.771067 -290.621982 
L 1315.457179 -288.315578 
L 1312.143291 -284.335277 
L 1308.829403 -278.776818 
L 1305.515515 -271.774883 
L 1302.201627 -263.500468 
L 1298.887739 -254.157315 
L 1295.573851 -243.977519 
L 1292.259963 -233.21643 
L 1288.946075 -222.147032 
L 1285.632187 -211.053982 
L 1282.318299 -200.227537 
L 1279.004411 -189.957521 
L 1275.690523 -180.527464 
L 1272.376635 -172.208975 
L 1269.062747 -165.256274 
L 1265.748859 -159.900807 
L 1262.434971 -156.345737 
L 1259.121084 -154.760169 
L 1255.807196 -155.272974 
L 1252.493308 -157.966191 
L 1249.17942 -162.868185 
L 1245.865532 -169.946876 
L 1242.551644 -179.103607 
L 1239.237756 -190.168362 
L 1235.923868 -202.897159 
L 1232.60998 -216.972471 
L 1229.296092 -232.007426 
L 1225.982204 -247.55433 
L 1222.668316 -263.117722 
L 1219.354428 -278.171782 
L 1216.04054 -292.181451 
L 1212.726652 -304.626196 
L 1209.412764 -315.024949 
L 1206.098876 -322.960536 
L 1202.784988 -328.101751 
L 1199.4711 -330.221344 
L 1196.157213 -329.208426 
L 1192.843325 -325.074216 
L 1189.529437 -317.950605 
L 1186.215549 -308.08159 
L 1182.901661 -295.808275 
L 1179.587773 -281.548645 
L 1176.273885 -265.773762 
L 1172.959997 -248.982256 
L 1169.646109 -231.67507 
L 1166.332221 -214.332273 
L 1163.018333 -197.393457 
L 1159.704445 -181.242832 
L 1156.390557 -166.1996 
L 1153.076669 -152.513728 
L 1149.762781 -140.366746 
L 1146.448893 -129.87681 
L 1143.135005 -121.107036 
L 1139.821117 -114.075942 
L 1136.507229 -108.76886 
L 1133.193341 -105.149234 
L 1129.879454 -103.168935 
L 1126.565566 -102.776921 
L 1123.251678 -103.925815 
L 1119.93779 -106.576183 
L 1116.623902 -110.698508 
L 1113.310014 -116.272966 
L 1109.996126 -123.287237 
L 1106.682238 -131.732622 
L 1103.36835 -141.598756 
L 1100.054462 -152.867248 
L 1096.740574 -165.504531 
L 1093.426686 -179.4543 
L 1090.112798 -194.629881 
L 1086.79891 -210.906999 
L 1083.485022 -228.117452 
L 1080.171134 -246.044289 
L 1076.857246 -264.419145 
L 1073.543358 -282.922381 
L 1070.22947 -301.186612 
L 1066.915583 -318.804068 
L 1063.601695 -335.33797 
L 1060.287807 -350.33776 
L 1056.973919 -363.357666 
L 1053.660031 -373.977644 
L 1050.346143 -381.825377 
L 1047.032255 -386.597743 
L 1043.718367 -388.08 
L 1040.404479 -386.160987 
L 1037.090591 -380.842884 
L 1033.776703 -372.244447 
L 1030.462815 -360.597214 
L 1027.148927 -346.234772 
L 1023.835039 -329.575847 
L 1020.521151 -311.102477 
L 1017.207263 -291.335018 
L 1013.893375 -270.805904 
L 1010.579487 -250.034161 
L 1007.265599 -229.502458 
L 1003.951712 -209.638177 
L 1000.637824 -190.799486 
L 997.323936 -173.266909 
L 994.010048 -157.240354 
L 990.69616 -142.841142 
L 987.382272 -130.118192 
L 984.068384 -119.05734 
L 980.754496 -109.592657 
L 977.440608 -101.618653 
L 974.12672 -95.002406 
L 970.812832 -89.59482 
L 967.498944 -85.240442 
L 964.185056 -81.785516 
L 960.871168 -79.084123 
L 957.55728 -77.002476 
L 954.243392 -75.421518 
L 950.929504 -74.238088 
L 947.615616 -73.364956 
L 944.301728 -72.730019 
L 940.987841 -72.274939 
L 937.673953 -71.95347 
L 934.360065 -71.729669 
L 931.046177 -71.576122 
L 927.732289 -71.472311 
L 924.418401 -71.403153 
L 921.104513 -71.357758 
z
"/>
    </defs>
    <g clip-path="url(#p41413d38fe)">
     <use xlink:href="#m3287d8754f" x="0" y="648" style="fill: #ff4d4d; fill-opacity: 0.1"/>
    </g>
   </g>
   <g id="matplotlib.axis_3"/>
   <g id="matplotlib.axis_4"/>
   <g id="line2d_9">
    <path d="M 902.725556 576.28993 
L 908.607025 575.986938 
L 914.488494 575.500339 
L 920.369963 574.739055 
L 923.310697 574.218056 
L 926.251432 573.578895 
L 929.192166 572.799939 
L 932.1329 571.856881 
L 935.073635 570.722711 
L 938.014369 569.367755 
L 940.955104 567.759816 
L 943.895838 565.864413 
L 946.836573 563.645142 
L 949.777307 561.064168 
L 952.718042 558.082848 
L 955.658776 554.662502 
L 958.599511 550.76531 
L 961.540245 546.355341 
L 964.48098 541.39969 
L 967.421714 535.8697 
L 970.362449 529.742242 
L 973.303183 523.001008 
L 976.243917 515.637786 
L 979.184652 507.653658 
L 982.125386 499.060077 
L 985.066121 489.879771 
L 988.006855 480.147424 
L 990.94759 469.910097 
L 996.829059 448.170971 
L 1002.710528 425.282256 
L 1011.532731 390.556465 
L 1017.4142 368.503066 
L 1020.354934 358.172408 
L 1023.295669 348.465762 
L 1026.236403 339.496591 
L 1029.177138 331.370328 
L 1032.117872 324.182227 
L 1035.058607 318.015445 
L 1037.999341 312.939418 
L 1040.940076 309.00856 
L 1043.88081 306.261318 
L 1046.821545 304.719591 
L 1049.762279 304.388523 
L 1052.703014 305.256649 
L 1055.643748 307.296365 
L 1058.584483 310.464706 
L 1061.525217 314.704371 
L 1064.465951 319.94497 
L 1067.406686 326.104423 
L 1070.34742 333.090483 
L 1073.288155 340.802326 
L 1076.228889 349.13217 
L 1079.169624 357.966884 
L 1085.051093 376.681015 
L 1096.814031 414.948888 
L 1099.754765 424.0118 
L 1102.6955 432.654215 
L 1105.636234 440.775944 
L 1108.576968 448.283504 
L 1111.517703 455.090946 
L 1114.458437 461.120634 
L 1117.399172 466.304015 
L 1120.339906 470.582356 
L 1123.280641 473.907471 
L 1126.221375 476.242418 
L 1129.16211 477.562162 
L 1132.102844 477.854192 
L 1135.043579 477.119067 
L 1137.984313 475.370871 
L 1140.925048 472.637542 
L 1143.865782 468.961062 
L 1146.806517 464.397447 
L 1149.747251 459.016543 
L 1152.687985 452.901568 
L 1155.62872 446.14839 
L 1158.569454 438.864533 
L 1164.450923 423.18506 
L 1173.273127 398.876677 
L 1176.213861 391.120479 
L 1179.154596 383.769171 
L 1182.09533 376.955076 
L 1185.036065 370.802297 
L 1187.976799 365.424098 
L 1190.917534 360.920437 
L 1193.858268 357.375748 
L 1196.799002 354.857031 
L 1199.739737 353.412315 
L 1202.680471 353.069546 
L 1205.621206 353.835944 
L 1208.56194 355.697839 
L 1211.502675 358.621016 
L 1214.443409 362.551536 
L 1217.384144 367.417031 
L 1220.324878 373.128418 
L 1223.265613 379.581987 
L 1226.206347 386.661799 
L 1229.147082 394.242321 
L 1235.028551 410.372275 
L 1243.850754 434.947436 
L 1246.791488 442.715849 
L 1249.732223 450.07417 
L 1252.672957 456.919032 
L 1255.613692 463.160042 
L 1258.554426 468.721148 
L 1261.495161 473.541684 
L 1264.435895 477.577072 
L 1267.37663 480.799206 
L 1270.317364 483.196512 
L 1273.258099 484.773712 
L 1276.198833 485.551301 
L 1279.139568 485.564756 
L 1282.080302 484.863503 
L 1285.021036 483.509658 
L 1287.961771 481.57657 
L 1290.902505 479.147184 
L 1293.84324 476.312257 
L 1296.783974 473.168451 
L 1302.665443 466.358349 
L 1308.546912 459.531366 
L 1311.487647 456.358073 
L 1314.428381 453.466457 
L 1317.369116 450.93834 
L 1320.30985 448.84621 
L 1323.250585 447.251939 
L 1326.191319 446.205771 
L 1329.132053 445.74559 
L 1332.072788 445.896514 
L 1335.013522 446.670798 
L 1337.954257 448.068055 
L 1340.894991 450.075785 
L 1343.835726 452.670174 
L 1346.77646 455.817159 
L 1349.717195 459.473685 
L 1352.657929 463.589135 
L 1355.598664 468.106877 
L 1358.539398 472.96586 
L 1364.420867 483.450932 
L 1373.24307 500.132372 
L 1379.124539 511.193042 
L 1385.006008 521.738768 
L 1387.946743 526.721494 
L 1390.887477 531.471297 
L 1393.828212 535.966209 
L 1396.768946 540.19015 
L 1399.709681 544.132586 
L 1402.650415 547.7881 
L 1405.59115 551.155889 
L 1408.531884 554.239217 
L 1411.472619 557.04485 
L 1414.413353 559.582479 
L 1417.354087 561.864158 
L 1420.294822 563.903766 
L 1423.235556 565.716507 
L 1426.176291 567.318449 
L 1429.117025 568.726121 
L 1432.05776 569.956152 
L 1434.998494 571.024966 
L 1437.939229 571.948535 
L 1440.879963 572.742173 
L 1446.761432 573.996739 
L 1452.642901 574.893178 
L 1458.52437 575.519596 
L 1464.405839 575.947607 
L 1473.228042 576.337016 
L 1484.99098 576.580786 
L 1487.931715 576.613402 
L 1487.931715 576.613402 
" clip-path="url(#p41413d38fe)" style="fill: none; stroke: #00bfff; stroke-opacity: 0.2; stroke-width: 10; stroke-linecap: square"/>
   </g>
   <g id="line2d_10">
    <path d="M 902.725556 576.28993 
L 908.607025 575.986938 
L 914.488494 575.500339 
L 920.369963 574.739055 
L 923.310697 574.218056 
L 926.251432 573.578895 
L 929.192166 572.799939 
L 932.1329 571.856881 
L 935.073635 570.722711 
L 938.014369 569.367755 
L 940.955104 567.759816 
L 943.895838 565.864413 
L 946.836573 563.645142 
L 949.777307 561.064168 
L 952.718042 558.082848 
L 955.658776 554.662502 
L 958.599511 550.76531 
L 961.540245 546.355341 
L 964.48098 541.39969 
L 967.421714 535.8697 
L 970.362449 529.742242 
L 973.303183 523.001008 
L 976.243917 515.637786 
L 979.184652 507.653658 
L 982.125386 499.060077 
L 985.066121 489.879771 
L 988.006855 480.147424 
L 990.94759 469.910097 
L 996.829059 448.170971 
L 1002.710528 425.282256 
L 1011.532731 390.556465 
L 1017.4142 368.503066 
L 1020.354934 358.172408 
L 1023.295669 348.465762 
L 1026.236403 339.496591 
L 1029.177138 331.370328 
L 1032.117872 324.182227 
L 1035.058607 318.015445 
L 1037.999341 312.939418 
L 1040.940076 309.00856 
L 1043.88081 306.261318 
L 1046.821545 304.719591 
L 1049.762279 304.388523 
L 1052.703014 305.256649 
L 1055.643748 307.296365 
L 1058.584483 310.464706 
L 1061.525217 314.704371 
L 1064.465951 319.94497 
L 1067.406686 326.104423 
L 1070.34742 333.090483 
L 1073.288155 340.802326 
L 1076.228889 349.13217 
L 1079.169624 357.966884 
L 1085.051093 376.681015 
L 1096.814031 414.948888 
L 1099.754765 424.0118 
L 1102.6955 432.654215 
L 1105.636234 440.775944 
L 1108.576968 448.283504 
L 1111.517703 455.090946 
L 1114.458437 461.120634 
L 1117.399172 466.304015 
L 1120.339906 470.582356 
L 1123.280641 473.907471 
L 1126.221375 476.242418 
L 1129.16211 477.562162 
L 1132.102844 477.854192 
L 1135.043579 477.119067 
L 1137.984313 475.370871 
L 1140.925048 472.637542 
L 1143.865782 468.961062 
L 1146.806517 464.397447 
L 1149.747251 459.016543 
L 1152.687985 452.901568 
L 1155.62872 446.14839 
L 1158.569454 438.864533 
L 1164.450923 423.18506 
L 1173.273127 398.876677 
L 1176.213861 391.120479 
L 1179.154596 383.769171 
L 1182.09533 376.955076 
L 1185.036065 370.802297 
L 1187.976799 365.424098 
L 1190.917534 360.920437 
L 1193.858268 357.375748 
L 1196.799002 354.857031 
L 1199.739737 353.412315 
L 1202.680471 353.069546 
L 1205.621206 353.835944 
L 1208.56194 355.697839 
L 1211.502675 358.621016 
L 1214.443409 362.551536 
L 1217.384144 367.417031 
L 1220.324878 373.128418 
L 1223.265613 379.581987 
L 1226.206347 386.661799 
L 1229.147082 394.242321 
L 1235.028551 410.372275 
L 1243.850754 434.947436 
L 1246.791488 442.715849 
L 1249.732223 450.07417 
L 1252.672957 456.919032 
L 1255.613692 463.160042 
L 1258.554426 468.721148 
L 1261.495161 473.541684 
L 1264.435895 477.577072 
L 1267.37663 480.799206 
L 1270.317364 483.196512 
L 1273.258099 484.773712 
L 1276.198833 485.551301 
L 1279.139568 485.564756 
L 1282.080302 484.863503 
L 1285.021036 483.509658 
L 1287.961771 481.57657 
L 1290.902505 479.147184 
L 1293.84324 476.312257 
L 1296.783974 473.168451 
L 1302.665443 466.358349 
L 1308.546912 459.531366 
L 1311.487647 456.358073 
L 1314.428381 453.466457 
L 1317.369116 450.93834 
L 1320.30985 448.84621 
L 1323.250585 447.251939 
L 1326.191319 446.205771 
L 1329.132053 445.74559 
L 1332.072788 445.896514 
L 1335.013522 446.670798 
L 1337.954257 448.068055 
L 1340.894991 450.075785 
L 1343.835726 452.670174 
L 1346.77646 455.817159 
L 1349.717195 459.473685 
L 1352.657929 463.589135 
L 1355.598664 468.106877 
L 1358.539398 472.96586 
L 1364.420867 483.450932 
L 1373.24307 500.132372 
L 1379.124539 511.193042 
L 1385.006008 521.738768 
L 1387.946743 526.721494 
L 1390.887477 531.471297 
L 1393.828212 535.966209 
L 1396.768946 540.19015 
L 1399.709681 544.132586 
L 1402.650415 547.7881 
L 1405.59115 551.155889 
L 1408.531884 554.239217 
L 1411.472619 557.04485 
L 1414.413353 559.582479 
L 1417.354087 561.864158 
L 1420.294822 563.903766 
L 1423.235556 565.716507 
L 1426.176291 567.318449 
L 1429.117025 568.726121 
L 1432.05776 569.956152 
L 1434.998494 571.024966 
L 1437.939229 571.948535 
L 1440.879963 572.742173 
L 1446.761432 573.996739 
L 1452.642901 574.893178 
L 1458.52437 575.519596 
L 1464.405839 575.947607 
L 1473.228042 576.337016 
L 1484.99098 576.580786 
L 1487.931715 576.613402 
L 1487.931715 576.613402 
" clip-path="url(#p41413d38fe)" style="fill: none; stroke: #00bfff; stroke-opacity: 0.4; stroke-width: 5; stroke-linecap: square"/>
   </g>
   <g id="line2d_11">
    <path d="M 902.725556 576.28993 
L 908.607025 575.986938 
L 914.488494 575.500339 
L 920.369963 574.739055 
L 923.310697 574.218056 
L 926.251432 573.578895 
L 929.192166 572.799939 
L 932.1329 571.856881 
L 935.073635 570.722711 
L 938.014369 569.367755 
L 940.955104 567.759816 
L 943.895838 565.864413 
L 946.836573 563.645142 
L 949.777307 561.064168 
L 952.718042 558.082848 
L 955.658776 554.662502 
L 958.599511 550.76531 
L 961.540245 546.355341 
L 964.48098 541.39969 
L 967.421714 535.8697 
L 970.362449 529.742242 
L 973.303183 523.001008 
L 976.243917 515.637786 
L 979.184652 507.653658 
L 982.125386 499.060077 
L 985.066121 489.879771 
L 988.006855 480.147424 
L 990.94759 469.910097 
L 996.829059 448.170971 
L 1002.710528 425.282256 
L 1011.532731 390.556465 
L 1017.4142 368.503066 
L 1020.354934 358.172408 
L 1023.295669 348.465762 
L 1026.236403 339.496591 
L 1029.177138 331.370328 
L 1032.117872 324.182227 
L 1035.058607 318.015445 
L 1037.999341 312.939418 
L 1040.940076 309.00856 
L 1043.88081 306.261318 
L 1046.821545 304.719591 
L 1049.762279 304.388523 
L 1052.703014 305.256649 
L 1055.643748 307.296365 
L 1058.584483 310.464706 
L 1061.525217 314.704371 
L 1064.465951 319.94497 
L 1067.406686 326.104423 
L 1070.34742 333.090483 
L 1073.288155 340.802326 
L 1076.228889 349.13217 
L 1079.169624 357.966884 
L 1085.051093 376.681015 
L 1096.814031 414.948888 
L 1099.754765 424.0118 
L 1102.6955 432.654215 
L 1105.636234 440.775944 
L 1108.576968 448.283504 
L 1111.517703 455.090946 
L 1114.458437 461.120634 
L 1117.399172 466.304015 
L 1120.339906 470.582356 
L 1123.280641 473.907471 
L 1126.221375 476.242418 
L 1129.16211 477.562162 
L 1132.102844 477.854192 
L 1135.043579 477.119067 
L 1137.984313 475.370871 
L 1140.925048 472.637542 
L 1143.865782 468.961062 
L 1146.806517 464.397447 
L 1149.747251 459.016543 
L 1152.687985 452.901568 
L 1155.62872 446.14839 
L 1158.569454 438.864533 
L 1164.450923 423.18506 
L 1173.273127 398.876677 
L 1176.213861 391.120479 
L 1179.154596 383.769171 
L 1182.09533 376.955076 
L 1185.036065 370.802297 
L 1187.976799 365.424098 
L 1190.917534 360.920437 
L 1193.858268 357.375748 
L 1196.799002 354.857031 
L 1199.739737 353.412315 
L 1202.680471 353.069546 
L 1205.621206 353.835944 
L 1208.56194 355.697839 
L 1211.502675 358.621016 
L 1214.443409 362.551536 
L 1217.384144 367.417031 
L 1220.324878 373.128418 
L 1223.265613 379.581987 
L 1226.206347 386.661799 
L 1229.147082 394.242321 
L 1235.028551 410.372275 
L 1243.850754 434.947436 
L 1246.791488 442.715849 
L 1249.732223 450.07417 
L 1252.672957 456.919032 
L 1255.613692 463.160042 
L 1258.554426 468.721148 
L 1261.495161 473.541684 
L 1264.435895 477.577072 
L 1267.37663 480.799206 
L 1270.317364 483.196512 
L 1273.258099 484.773712 
L 1276.198833 485.551301 
L 1279.139568 485.564756 
L 1282.080302 484.863503 
L 1285.021036 483.509658 
L 1287.961771 481.57657 
L 1290.902505 479.147184 
L 1293.84324 476.312257 
L 1296.783974 473.168451 
L 1302.665443 466.358349 
L 1308.546912 459.531366 
L 1311.487647 456.358073 
L 1314.428381 453.466457 
L 1317.369116 450.93834 
L 1320.30985 448.84621 
L 1323.250585 447.251939 
L 1326.191319 446.205771 
L 1329.132053 445.74559 
L 1332.072788 445.896514 
L 1335.013522 446.670798 
L 1337.954257 448.068055 
L 1340.894991 450.075785 
L 1343.835726 452.670174 
L 1346.77646 455.817159 
L 1349.717195 459.473685 
L 1352.657929 463.589135 
L 1355.598664 468.106877 
L 1358.539398 472.96586 
L 1364.420867 483.450932 
L 1373.24307 500.132372 
L 1379.124539 511.193042 
L 1385.006008 521.738768 
L 1387.946743 526.721494 
L 1390.887477 531.471297 
L 1393.828212 535.966209 
L 1396.768946 540.19015 
L 1399.709681 544.132586 
L 1402.650415 547.7881 
L 1405.59115 551.155889 
L 1408.531884 554.239217 
L 1411.472619 557.04485 
L 1414.413353 559.582479 
L 1417.354087 561.864158 
L 1420.294822 563.903766 
L 1423.235556 565.716507 
L 1426.176291 567.318449 
L 1429.117025 568.726121 
L 1432.05776 569.956152 
L 1434.998494 571.024966 
L 1437.939229 571.948535 
L 1440.879963 572.742173 
L 1446.761432 573.996739 
L 1452.642901 574.893178 
L 1458.52437 575.519596 
L 1464.405839 575.947607 
L 1473.228042 576.337016 
L 1484.99098 576.580786 
L 1487.931715 576.613402 
L 1487.931715 576.613402 
" clip-path="url(#p41413d38fe)" style="fill: none; stroke: #00bfff; stroke-width: 2.5; stroke-linecap: square"/>
   </g>
   <g id="line2d_12">
    <path d="M 921.104513 576.642242 
L 931.046177 576.423878 
L 937.673953 576.04653 
L 940.987841 575.725061 
L 944.301728 575.269981 
L 947.615616 574.635044 
L 950.929504 573.761912 
L 954.243392 572.578482 
L 957.55728 570.997524 
L 960.871168 568.915877 
L 964.185056 566.214484 
L 967.498944 562.759558 
L 970.812832 558.40518 
L 974.12672 552.997594 
L 977.440608 546.381347 
L 980.754496 538.407343 
L 984.068384 528.94266 
L 987.382272 517.881808 
L 990.69616 505.158858 
L 994.010048 490.759646 
L 997.323936 474.733091 
L 1000.637824 457.200514 
L 1003.951712 438.361823 
L 1010.579487 397.965839 
L 1017.207263 356.664982 
L 1020.521151 336.897523 
L 1023.835039 318.424153 
L 1027.148927 301.765228 
L 1030.462815 287.402786 
L 1033.776703 275.755553 
L 1037.090591 267.157116 
L 1040.404479 261.839013 
L 1043.718367 259.92 
L 1047.032255 261.402257 
L 1050.346143 266.174623 
L 1053.660031 274.022356 
L 1056.973919 284.642334 
L 1060.287807 297.66224 
L 1063.601695 312.66203 
L 1066.915583 329.195932 
L 1070.22947 346.813388 
L 1083.485022 419.882548 
L 1086.79891 437.093001 
L 1090.112798 453.370119 
L 1093.426686 468.5457 
L 1096.740574 482.495469 
L 1100.054462 495.132752 
L 1103.36835 506.401244 
L 1106.682238 516.267378 
L 1109.996126 524.712763 
L 1113.310014 531.727034 
L 1116.623902 537.301492 
L 1119.93779 541.423817 
L 1123.251678 544.074185 
L 1126.565566 545.223079 
L 1129.879454 544.831065 
L 1133.193341 542.850766 
L 1136.507229 539.23114 
L 1139.821117 533.924058 
L 1143.135005 526.892964 
L 1146.448893 518.12319 
L 1149.762781 507.633254 
L 1153.076669 495.486272 
L 1156.390557 481.8004 
L 1159.704445 466.757168 
L 1163.018333 450.606543 
L 1169.646109 416.32493 
L 1176.273885 382.226238 
L 1179.587773 366.451355 
L 1182.901661 352.191725 
L 1186.215549 339.91841 
L 1189.529437 330.049395 
L 1192.843325 322.925784 
L 1196.157213 318.791574 
L 1199.4711 317.778656 
L 1202.784988 319.898249 
L 1206.098876 325.039464 
L 1209.412764 332.975051 
L 1212.726652 343.373804 
L 1216.04054 355.818549 
L 1219.354428 369.828218 
L 1225.982204 400.44567 
L 1232.60998 431.027529 
L 1235.923868 445.102841 
L 1239.237756 457.831638 
L 1242.551644 468.896393 
L 1245.865532 478.053124 
L 1249.17942 485.131815 
L 1252.493308 490.033809 
L 1255.807196 492.727026 
L 1259.121084 493.239831 
L 1262.434971 491.654263 
L 1265.748859 488.099193 
L 1269.062747 482.743726 
L 1272.376635 475.791025 
L 1275.690523 467.472536 
L 1279.004411 458.042479 
L 1282.318299 447.772463 
L 1288.946075 425.852968 
L 1295.573851 404.022481 
L 1298.887739 393.842685 
L 1302.201627 384.499532 
L 1305.515515 376.225117 
L 1308.829403 369.223182 
L 1312.143291 363.664723 
L 1315.457179 359.684422 
L 1318.771067 357.378018 
L 1322.084955 356.800645 
L 1325.398842 357.966185 
L 1328.71273 360.847652 
L 1332.026618 365.378599 
L 1335.340506 371.455588 
L 1338.654394 378.941681 
L 1341.968282 387.670954 
L 1345.28217 397.453932 
L 1348.596058 408.083846 
L 1351.909946 419.343476 
L 1368.479386 477.648261 
L 1371.793274 488.418304 
L 1375.107162 498.567593 
L 1378.42105 508.013463 
L 1381.734938 516.70209 
L 1385.048826 524.606666 
L 1388.362713 531.724509 
L 1391.676601 538.073412 
L 1394.990489 543.687549 
L 1398.304377 548.613258 
L 1401.618265 552.904973 
L 1404.932153 556.621535 
L 1408.246041 559.823045 
L 1411.559929 562.568355 
L 1414.873817 564.913212 
L 1418.187705 566.909034 
L 1421.501593 568.602244 
L 1424.815481 570.034049 
L 1428.129369 571.240572 
L 1431.443257 572.253201 
L 1434.757145 573.099076 
L 1438.071033 573.801621 
L 1444.698809 574.854929 
L 1451.326584 575.544751 
L 1457.95436 575.970796 
L 1467.896024 576.277107 
L 1481.151576 576.339896 
L 1514.290455 576.286798 
L 1580.568214 576.714827 
L 1580.568214 576.714827 
" clip-path="url(#p41413d38fe)" style="fill: none; stroke: #ff4d4d; stroke-opacity: 0.2; stroke-width: 10; stroke-linecap: square"/>
   </g>
   <g id="line2d_13">
    <path d="M 921.104513 576.642242 
L 931.046177 576.423878 
L 937.673953 576.04653 
L 940.987841 575.725061 
L 944.301728 575.269981 
L 947.615616 574.635044 
L 950.929504 573.761912 
L 954.243392 572.578482 
L 957.55728 570.997524 
L 960.871168 568.915877 
L 964.185056 566.214484 
L 967.498944 562.759558 
L 970.812832 558.40518 
L 974.12672 552.997594 
L 977.440608 546.381347 
L 980.754496 538.407343 
L 984.068384 528.94266 
L 987.382272 517.881808 
L 990.69616 505.158858 
L 994.010048 490.759646 
L 997.323936 474.733091 
L 1000.637824 457.200514 
L 1003.951712 438.361823 
L 1010.579487 397.965839 
L 1017.207263 356.664982 
L 1020.521151 336.897523 
L 1023.835039 318.424153 
L 1027.148927 301.765228 
L 1030.462815 287.402786 
L 1033.776703 275.755553 
L 1037.090591 267.157116 
L 1040.404479 261.839013 
L 1043.718367 259.92 
L 1047.032255 261.402257 
L 1050.346143 266.174623 
L 1053.660031 274.022356 
L 1056.973919 284.642334 
L 1060.287807 297.66224 
L 1063.601695 312.66203 
L 1066.915583 329.195932 
L 1070.22947 346.813388 
L 1083.485022 419.882548 
L 1086.79891 437.093001 
L 1090.112798 453.370119 
L 1093.426686 468.5457 
L 1096.740574 482.495469 
L 1100.054462 495.132752 
L 1103.36835 506.401244 
L 1106.682238 516.267378 
L 1109.996126 524.712763 
L 1113.310014 531.727034 
L 1116.623902 537.301492 
L 1119.93779 541.423817 
L 1123.251678 544.074185 
L 1126.565566 545.223079 
L 1129.879454 544.831065 
L 1133.193341 542.850766 
L 1136.507229 539.23114 
L 1139.821117 533.924058 
L 1143.135005 526.892964 
L 1146.448893 518.12319 
L 1149.762781 507.633254 
L 1153.076669 495.486272 
L 1156.390557 481.8004 
L 1159.704445 466.757168 
L 1163.018333 450.606543 
L 1169.646109 416.32493 
L 1176.273885 382.226238 
L 1179.587773 366.451355 
L 1182.901661 352.191725 
L 1186.215549 339.91841 
L 1189.529437 330.049395 
L 1192.843325 322.925784 
L 1196.157213 318.791574 
L 1199.4711 317.778656 
L 1202.784988 319.898249 
L 1206.098876 325.039464 
L 1209.412764 332.975051 
L 1212.726652 343.373804 
L 1216.04054 355.818549 
L 1219.354428 369.828218 
L 1225.982204 400.44567 
L 1232.60998 431.027529 
L 1235.923868 445.102841 
L 1239.237756 457.831638 
L 1242.551644 468.896393 
L 1245.865532 478.053124 
L 1249.17942 485.131815 
L 1252.493308 490.033809 
L 1255.807196 492.727026 
L 1259.121084 493.239831 
L 1262.434971 491.654263 
L 1265.748859 488.099193 
L 1269.062747 482.743726 
L 1272.376635 475.791025 
L 1275.690523 467.472536 
L 1279.004411 458.042479 
L 1282.318299 447.772463 
L 1288.946075 425.852968 
L 1295.573851 404.022481 
L 1298.887739 393.842685 
L 1302.201627 384.499532 
L 1305.515515 376.225117 
L 1308.829403 369.223182 
L 1312.143291 363.664723 
L 1315.457179 359.684422 
L 1318.771067 357.378018 
L 1322.084955 356.800645 
L 1325.398842 357.966185 
L 1328.71273 360.847652 
L 1332.026618 365.378599 
L 1335.340506 371.455588 
L 1338.654394 378.941681 
L 1341.968282 387.670954 
L 1345.28217 397.453932 
L 1348.596058 408.083846 
L 1351.909946 419.343476 
L 1368.479386 477.648261 
L 1371.793274 488.418304 
L 1375.107162 498.567593 
L 1378.42105 508.013463 
L 1381.734938 516.70209 
L 1385.048826 524.606666 
L 1388.362713 531.724509 
L 1391.676601 538.073412 
L 1394.990489 543.687549 
L 1398.304377 548.613258 
L 1401.618265 552.904973 
L 1404.932153 556.621535 
L 1408.246041 559.823045 
L 1411.559929 562.568355 
L 1414.873817 564.913212 
L 1418.187705 566.909034 
L 1421.501593 568.602244 
L 1424.815481 570.034049 
L 1428.129369 571.240572 
L 1431.443257 572.253201 
L 1434.757145 573.099076 
L 1438.071033 573.801621 
L 1444.698809 574.854929 
L 1451.326584 575.544751 
L 1457.95436 575.970796 
L 1467.896024 576.277107 
L 1481.151576 576.339896 
L 1514.290455 576.286798 
L 1580.568214 576.714827 
L 1580.568214 576.714827 
" clip-path="url(#p41413d38fe)" style="fill: none; stroke: #ff4d4d; stroke-opacity: 0.4; stroke-width: 5; stroke-linecap: square"/>
   </g>
   <g id="line2d_14">
    <path d="M 921.104513 576.642242 
L 931.046177 576.423878 
L 937.673953 576.04653 
L 940.987841 575.725061 
L 944.301728 575.269981 
L 947.615616 574.635044 
L 950.929504 573.761912 
L 954.243392 572.578482 
L 957.55728 570.997524 
L 960.871168 568.915877 
L 964.185056 566.214484 
L 967.498944 562.759558 
L 970.812832 558.40518 
L 974.12672 552.997594 
L 977.440608 546.381347 
L 980.754496 538.407343 
L 984.068384 528.94266 
L 987.382272 517.881808 
L 990.69616 505.158858 
L 994.010048 490.759646 
L 997.323936 474.733091 
L 1000.637824 457.200514 
L 1003.951712 438.361823 
L 1010.579487 397.965839 
L 1017.207263 356.664982 
L 1020.521151 336.897523 
L 1023.835039 318.424153 
L 1027.148927 301.765228 
L 1030.462815 287.402786 
L 1033.776703 275.755553 
L 1037.090591 267.157116 
L 1040.404479 261.839013 
L 1043.718367 259.92 
L 1047.032255 261.402257 
L 1050.346143 266.174623 
L 1053.660031 274.022356 
L 1056.973919 284.642334 
L 1060.287807 297.66224 
L 1063.601695 312.66203 
L 1066.915583 329.195932 
L 1070.22947 346.813388 
L 1083.485022 419.882548 
L 1086.79891 437.093001 
L 1090.112798 453.370119 
L 1093.426686 468.5457 
L 1096.740574 482.495469 
L 1100.054462 495.132752 
L 1103.36835 506.401244 
L 1106.682238 516.267378 
L 1109.996126 524.712763 
L 1113.310014 531.727034 
L 1116.623902 537.301492 
L 1119.93779 541.423817 
L 1123.251678 544.074185 
L 1126.565566 545.223079 
L 1129.879454 544.831065 
L 1133.193341 542.850766 
L 1136.507229 539.23114 
L 1139.821117 533.924058 
L 1143.135005 526.892964 
L 1146.448893 518.12319 
L 1149.762781 507.633254 
L 1153.076669 495.486272 
L 1156.390557 481.8004 
L 1159.704445 466.757168 
L 1163.018333 450.606543 
L 1169.646109 416.32493 
L 1176.273885 382.226238 
L 1179.587773 366.451355 
L 1182.901661 352.191725 
L 1186.215549 339.91841 
L 1189.529437 330.049395 
L 1192.843325 322.925784 
L 1196.157213 318.791574 
L 1199.4711 317.778656 
L 1202.784988 319.898249 
L 1206.098876 325.039464 
L 1209.412764 332.975051 
L 1212.726652 343.373804 
L 1216.04054 355.818549 
L 1219.354428 369.828218 
L 1225.982204 400.44567 
L 1232.60998 431.027529 
L 1235.923868 445.102841 
L 1239.237756 457.831638 
L 1242.551644 468.896393 
L 1245.865532 478.053124 
L 1249.17942 485.131815 
L 1252.493308 490.033809 
L 1255.807196 492.727026 
L 1259.121084 493.239831 
L 1262.434971 491.654263 
L 1265.748859 488.099193 
L 1269.062747 482.743726 
L 1272.376635 475.791025 
L 1275.690523 467.472536 
L 1279.004411 458.042479 
L 1282.318299 447.772463 
L 1288.946075 425.852968 
L 1295.573851 404.022481 
L 1298.887739 393.842685 
L 1302.201627 384.499532 
L 1305.515515 376.225117 
L 1308.829403 369.223182 
L 1312.143291 363.664723 
L 1315.457179 359.684422 
L 1318.771067 357.378018 
L 1322.084955 356.800645 
L 1325.398842 357.966185 
L 1328.71273 360.847652 
L 1332.026618 365.378599 
L 1335.340506 371.455588 
L 1338.654394 378.941681 
L 1341.968282 387.670954 
L 1345.28217 397.453932 
L 1348.596058 408.083846 
L 1351.909946 419.343476 
L 1368.479386 477.648261 
L 1371.793274 488.418304 
L 1375.107162 498.567593 
L 1378.42105 508.013463 
L 1381.734938 516.70209 
L 1385.048826 524.606666 
L 1388.362713 531.724509 
L 1391.676601 538.073412 
L 1394.990489 543.687549 
L 1398.304377 548.613258 
L 1401.618265 552.904973 
L 1404.932153 556.621535 
L 1408.246041 559.823045 
L 1411.559929 562.568355 
L 1414.873817 564.913212 
L 1418.187705 566.909034 
L 1421.501593 568.602244 
L 1424.815481 570.034049 
L 1428.129369 571.240572 
L 1431.443257 572.253201 
L 1434.757145 573.099076 
L 1438.071033 573.801621 
L 1444.698809 574.854929 
L 1451.326584 575.544751 
L 1457.95436 575.970796 
L 1467.896024 576.277107 
L 1481.151576 576.339896 
L 1514.290455 576.286798 
L 1580.568214 576.714827 
L 1580.568214 576.714827 
" clip-path="url(#p41413d38fe)" style="fill: none; stroke: #ff4d4d; stroke-width: 2.5; stroke-linecap: square"/>
   </g>
   <g id="patch_5">
    <path d="M 946.472727 576.72 
L 1555.2 576.72 
" style="fill: none; stroke: #1c2128; stroke-width: 0.8; stroke-linejoin: miter; stroke-linecap: square"/>
   </g>
   <g id="text_4">
    <text style="font-style: italic; font-size: 26px; font-family: 'DejaVu Sans', 'Bitstream Vera Sans', 'Computer Modern Sans Serif', 'Lucida Grande', 'Verdana', 'Geneva', 'Lucid', 'Arial', 'Helvetica', 'Avant Garde', sans-serif; text-anchor: middle; fill: #888888" x="1186.730709" y="-4006.165594" transform="rotate(-0 1186.730709 -4006.165594)">Temporal Evolution</text>
   </g>
   <g id="text_5">
    <text style="font-size: 40px; font-family: 'DejaVu Sans', 'Bitstream Vera Sans', 'Computer Modern Sans Serif', 'Lucida Grande', 'Verdana', 'Geneva', 'Lucid', 'Arial', 'Helvetica', 'Avant Garde', sans-serif; text-anchor: middle; fill: #ffffff" x="1250.836364" y="47.76" transform="rotate(-0 1250.836364 47.76)">Dynamic State Transitions</text>
   </g>
   <g id="legend_2">
    <g id="line2d_15">
     <path d="M 1275.61875 111.815938 
L 1301.61875 111.815938 
L 1327.61875 111.815938 
" style="fill: none; stroke: #00bfff; stroke-width: 2.5; stroke-linecap: square"/>
    </g>
    <g id="text_6">
     <text style="font-size: 26px; font-family: 'DejaVu Sans', 'Bitstream Vera Sans', 'Computer Modern Sans Serif', 'Lucida Grande', 'Verdana', 'Geneva', 'Lucid', 'Arial', 'Helvetica', 'Avant Garde', sans-serif; text-anchor: start; fill: #ffffff" x="1348.41875" y="120.915938" transform="rotate(-0 1348.41875 120.915938)">Baseline</text>
    </g>
    <g id="line2d_16">
     <path d="M 1275.61875 149.979063 
L 1301.61875 149.979063 
L 1327.61875 149.979063 
" style="fill: none; stroke: #ff4d4d; stroke-width: 2.5; stroke-linecap: square"/>
    </g>
    <g id="text_7">
     <text style="font-size: 26px; font-family: 'DejaVu Sans', 'Bitstream Vera Sans', 'Computer Modern Sans Serif', 'Lucida Grande', 'Verdana', 'Geneva', 'Lucid', 'Arial', 'Helvetica', 'Avant Garde', sans-serif; text-anchor: start; fill: #ffffff" x="1348.41875" y="159.079063" transform="rotate(-0 1348.41875 159.079063)">Peak Infection</text>
    </g>
   </g>
  </g>
 </g>
 <defs>
  <clipPath id="p117aab65e0">
   <rect x="216" y="77.76" width="608.727273" height="498.96"/>
  </clipPath>
  <clipPath id="p41413d38fe">
   <rect x="946.472727" y="77.76" width="608.727273" height="498.96"/>
  </clipPath>
 </defs>
</svg>
